<?xml version="1.0" encoding="utf-8"?>
<!-- Generator: Adobe Illustrator 21.1.0, SVG Export Plug-In . SVG Version: 6.00 Build 0)  -->
<svg version="1.1" id="Layer_1" xmlns="http://www.w3.org/2000/svg" xmlns:xlink="http://www.w3.org/1999/xlink" x="0px" y="0px"
	 viewBox="0 0 46.3 48" style="enable-background:new 0 0 46.3 48;" xml:space="preserve">
<style type="text/css">
	.st0{fill:#FFFFFF;}
	.st1{fill:#7997CE;}
	.st2{fill:#95C851;}
	.st3{fill:none;stroke:#CCCCCC;stroke-width:0.5;stroke-miterlimit:10;}
	.st4{clip-path:url(#SVGID_2_);}
</style>
<title>66x48</title>
<path class="st0" d="M31.6,31.3c-2.5,1.5-5.4,2.3-8.4,2.3c-8.8,0-16-6.8-16.5-15.6h6.2c0.5,5.7,5.4,9.9,11.1,9.4
	c1.1-0.1,2.2-0.4,3.2-0.8L31.6,31.3z"/>
<path class="st0" d="M36.4,26.9l-1.8-1.7c-0.6,1.5-1.8,2.7-3.3,3.3l1.8,1.8l3.9,0.6L36.4,26.9z"/>
<path class="st0" d="M34.7,25.1c-0.6,1.5-1.8,2.7-3.3,3.3l1.8,1.8l3.3-3.3L34.7,25.1z"/>
<path class="st1" d="M35.8,30.6l1.3,0.2l-0.3-1.4C36.3,29.6,35.9,30.1,35.8,30.6z"/>
<path class="st0" d="M35,25.8c0.8,0.8,0.8,2.1,0,3c-0.8,0.8-2.1,0.8-3,0L27.2,24l3-3L35,25.8z"/>
<path class="st2" d="M30.1,20.6l5,5c1,0.9,1,2.4,0.1,3.3c-0.9,1-2.4,1-3.3,0.1c0,0-0.1-0.1-0.1-0.1l-5-5l0.4-0.4l5,5
	c0.7,0.7,1.9,0.7,2.6,0c0.7-0.7,0.7-1.9,0-2.6l-5-5L30.1,20.6z"/>
<line class="st3" x1="27.7" y1="23.5" x2="29.8" y2="25.5"/>
<line class="st3" x1="28.7" y1="22.5" x2="29.8" y2="23.6"/>
<line class="st3" x1="29.6" y1="21.5" x2="34.4" y2="26.3"/>
<path class="st0" d="M3.7,43.3c0.4,0,0.7-0.1,1-0.3v2c-0.3,0.1-0.7,0.2-1,0.2c-1.9,0-3.4-1.5-3.4-3.4s1.5-3.4,3.4-3.4
	c0.3,0,0.7,0.1,1,0.2v2C4,39.9,3,40,2.4,40.7C1.9,41.4,2,42.5,2.7,43C3,43.2,3.3,43.4,3.7,43.3L3.7,43.3z M7.1,46.5
	c0,0.7-0.3,1.1-0.9,1.1s-0.9-0.3-0.9-1.1v-1.9l0,0v-5.2c0-1,0.6-1.1,0.9-1.1c0.5,0.1,0.9,0.5,0.9,1.1L7.1,46.5z"/>
<path class="st0" d="M11.8,43.1V45c-0.2,0-0.4,0.1-0.6,0c-1.5,0.1-2.8-0.9-2.9-2.4c0-0.2,0-0.3,0-0.5v-2.8c0-0.8,0.4-1.1,0.9-1.1
	s0.9,0.3,0.9,1.1v2.7c0,0.6,0.5,1.1,1.1,1.1C11.4,43.2,11.6,43.2,11.8,43.1z M14.2,44c0,0.7-0.4,1-0.9,1c-0.3,0-0.9,0-0.9-1v-4.8
	c0-0.5,0.4-0.9,0.9-0.9c0.5,0,0.9,0.3,0.9,1.1L14.2,44z"/>
<path class="st0" d="M18.4,38.3c0.4,0,0.8,0.1,1.2,0.2v2c-0.3-0.3-0.7-0.5-1.2-0.5c-0.9,0-1.6,0.7-1.6,1.6s0.7,1.6,1.6,1.6
	c0.5,0,0.9-0.2,1.2-0.5v2.1c-0.4,0.1-0.8,0.2-1.2,0.2c-1.9,0-3.4-1.5-3.4-3.4S16.6,38.3,18.4,38.3L18.4,38.3z M20.2,44.6v-5.9
	c0.1-0.3,0.4-0.4,0.7-0.4H21c0.6,0,0.8,0.6,0.8,1.1v4.5c0,0.5-0.3,1.1-0.8,1.1H21C20.7,45,20.4,44.8,20.2,44.6L20.2,44.6z"/>
<path class="st0" d="M23,39.3c0-0.7,0.4-1,0.9-1c0.3,0,0.9,0,0.9,1V41c0,0,0,0.1,0,0.1v2.8c0,0.7-0.4,1.1-0.9,1.1S23,44.7,23,43.9
	L23,39.3z M25.4,40.2v-1.9c0.2,0,0.4-0.1,0.5,0c1.5-0.1,2.8,0.9,2.9,2.4c0,0.2,0,0.3,0,0.5v2.7c0,0.8-0.4,1.1-0.9,1.1
	S27,44.6,27,43.9v-2.7c0-0.6-0.5-1.2-1.1-1.2c0,0,0,0,0,0C25.7,40,25.5,40.1,25.4,40.2L25.4,40.2z"/>
<path class="st0" d="M30.9,37.6c0-0.8,0.4-1.1,0.9-1.1c0.5,0,0.9,0.3,0.9,1.1v0.8h0.5c0.7,0,1,0.3,1,0.8s-0.3,0.8-1,0.8h-2.9
	c-0.7,0-1-0.3-1-0.8s0.3-0.8,1-0.8h0.6V37.6z"/>
<path class="st0" d="M30.9,43.9v-3.3h1.8v3.3c0,0.8-0.4,1.1-0.9,1.1C31.3,45,30.9,44.6,30.9,43.9z"/>
<path class="st0" d="M35.1,39.3c0-0.7,0.4-1,0.9-1c0.3,0,0.5,0.1,0.7,0.3c0.4-0.2,0.9-0.4,1.3-0.3c0.5,0,0.9,0.4,0.9,0.9
	c0,0.5-0.4,0.8-0.9,0.9c-0.6,0-1.1,0.4-1.1,1v2.8c0,0.7-0.4,1.1-0.9,1.1s-0.9-0.3-0.9-1.1L35.1,39.3z"/>
<path class="st0" d="M42.6,38.3c0.4,0,0.8,0.1,1.2,0.2v2c-0.3-0.3-0.7-0.5-1.2-0.5c-0.9,0-1.6,0.7-1.6,1.6s0.7,1.6,1.6,1.6
	c0.5,0,0.9-0.2,1.2-0.5v2.1C43.4,44.9,43,45,42.6,45c-1.9,0-3.4-1.5-3.4-3.4S40.8,38.3,42.6,38.3L42.6,38.3z M44.4,44.6v-5.9
	c0.1-0.3,0.4-0.4,0.7-0.4h0.1c0.6,0,0.8,0.6,0.8,1.1v4.5c0,0.5-0.3,1.1-0.8,1.1h0C44.9,45,44.6,44.8,44.4,44.6L44.4,44.6z"/>
<g>
	<defs>
		<path id="SVGID_1_" d="M37.3,25.6l-4.6-4.6c0.5-1.3,0.8-2.6,0.8-4c0-5.7-4.6-10.4-10.3-10.4c-5.3,0-9.8,4-10.3,9.3H6.7
			C7.4,6.9,15.2,0.1,24.3,0.7s15.9,8.5,15.3,17.6C39.4,20.9,38.6,23.4,37.3,25.6z"/>
	</defs>
	<clipPath id="SVGID_2_">
		<use xlink:href="#SVGID_1_"  style="overflow:visible;"/>
	</clipPath>
	<g class="st4">
		<path class="st0" d="M24.2,5.1c-0.1,0.2-0.4,0.4-0.6,0.4c-0.3,0-0.5-0.1-0.7-0.3c-0.1-0.1-0.2-0.2-0.3-0.3
			c-0.1-0.1-0.1-0.2-0.2-0.4l1.3-3.2h-1.1L22,3.2c-0.1-1.3-0.7-2-1.8-2c-0.7,0-1.4,0.4-1.8,1c-0.4,0.6-0.6,1.3-0.5,2.1
			c0,0.6,0.2,1.2,0.6,1.7c0.4,0.5,0.9,0.7,1.5,0.7c0.5,0,1-0.2,1.4-0.6c0.3-0.4,0.6-0.8,0.8-1.3l0.2,0.7c0,0.1,0.1,0.3,0.2,0.4
			c0.2,0.5,0.5,0.7,0.8,0.7c0.3,0,0.5-0.2,0.6-0.4c0.1-0.2,0.2-0.5,0.2-0.8c0-0.1,0-0.1,0-0.2C24.2,5.2,24.2,5.1,24.2,5.1z
			 M21.2,5.2c-0.5,0.8-0.9,1.1-1.3,1.2c-0.7,0-1-0.5-1-1.6c-0.1-0.6,0-1.2,0.3-1.7c0.2-0.6,0.7-0.9,1.3-1c0.4,0,0.8,0.2,1,0.5
			c0.2,0.3,0.3,0.7,0.3,1.1C21.6,4.2,21.4,4.7,21.2,5.2L21.2,5.2z"/>
		<path class="st0" d="M38.8,21.2c-0.2,0.3-0.3,0.4-0.5,0.4s-0.4-0.1-0.6-0.4c-0.1-0.1-0.2-0.2-0.2-0.3c-0.1-0.1-0.1-0.2-0.1-0.4
			l1.2-3.1h-0.9L37,19.3c-0.1-1.3-0.6-2-1.6-2c-0.7,0-1.3,0.4-1.7,1c-0.3,0.6-0.5,1.3-0.5,2c0,0.6,0.1,1.1,0.4,1.6
			c0.3,0.5,0.8,0.7,1.4,0.7c0.5,0,1-0.2,1.3-0.5c0.3-0.4,0.6-0.8,0.8-1.3l0.2,0.7c0,0.1,0.1,0.3,0.2,0.4c0.2,0.5,0.4,0.7,0.7,0.7
			c0.3,0,0.5-0.2,0.6-0.4c0.1-0.2,0.1-0.5,0-0.7c0,0,0-0.1,0-0.1C38.8,21.3,38.8,21.3,38.8,21.2z M36.2,21.2
			c-0.5,0.7-0.9,1.1-1.3,1.1c-0.6,0-0.9-0.6-0.9-1.6c0-0.6,0.1-1.1,0.4-1.7c0.3-0.7,0.7-1,1.2-1c0.4,0,0.7,0.2,0.9,0.6
			c0.2,0.3,0.3,0.7,0.3,1.1C36.7,20.2,36.5,20.7,36.2,21.2L36.2,21.2z"/>
		<path class="st0" d="M28.8,4.6l0-0.9c0-0.2,0-0.5,0-0.6c0-1.1-0.4-1.7-1.3-1.7c-0.5,0-0.9,0.2-1.1,0.6c-0.1,0.2-0.2,0.3-0.3,0.5
			C26,2.8,26,3,25.9,3.3c-0.1-1.2-0.5-1.9-1.1-1.8c-0.2,0-0.3,0.1-0.4,0.2c-0.1,0.1-0.2,0.3-0.2,0.4c0,0.1,0,0.2,0.1,0.3
			c0,0.1,0.1,0.2,0.2,0.2c0.1,0,0.1,0,0.2-0.1c0.1-0.1,0.2-0.1,0.2-0.1c0.5,0,0.7,0.4,0.7,1.2c0,0.4-0.1,0.8-0.2,1.1
			c0,0.2-0.1,0.4-0.2,0.6c-0.1,0.2-0.1,0.4-0.2,0.6H26c0-0.2,0.1-0.5,0.1-0.7c0-0.2,0.1-0.5,0.1-0.7c0.1-0.6,0.3-1.1,0.5-1.6
			c0.3-0.5,0.6-0.8,1-0.8s0.6,0.3,0.7,0.9c0,0.7-0.1,1.5-0.3,2.2c-0.2,0.7-0.3,1.4-0.3,2.2c0,0.6,0.2,0.9,0.6,0.8
			c0.1,0,0.3-0.1,0.4-0.1C28.9,8,29,7.9,29,7.8c0-0.1,0-0.2,0-0.3c0-0.1,0-0.3-0.1-0.5c-0.1-0.3-0.1-0.6-0.1-0.9c0-0.2,0-0.4,0-0.6
			S28.8,4.9,28.8,4.6z"/>
		<path class="st0" d="M30.1,4.8c-0.3,0.2-0.5,0.4-0.6,0.7c-0.3,0.6-0.3,0.7-0.3,0.8l0.2,0.2c0.2-0.3,0.6-0.6,1-0.7
			c0.1-0.1,0.3-0.1,0.5-0.1l1-0.2c0,0.1,0,0.2,0,0.5v1c0,0.5,0,1,0.1,1.4c0.2,1.3,0.8,1.9,1.7,1.8c0.3-0.1,0.6-0.3,0.7-0.7
			c0.1-0.3,0.2-0.7,0.2-1V8.4c0,0,0-0.1,0-0.1C34.3,8.6,34,8.9,33.6,9c-0.3,0-0.6-0.1-0.8-0.3c-0.2-0.2-0.3-0.5-0.4-0.8
			c-0.1-0.8-0.1-1.6-0.1-2.4l0.8-0.2L33,4.1l-2.1,0.4C30.6,4.5,30.3,4.6,30.1,4.8z"/>
		<path class="st0" d="M32.8,11.5c0.7-0.1,0.9,0.2,1.5,0.9c0.4,0.5,0.7,1.1,0.9,1.8c0,0.3,0,0.7,0,1c0,0.2,0,0.4,0,0.6
			c0,0.1,0,0.3,0,0.4c0,0.2,0.2,0.3,0.6,0.2c0.4-0.1,0.6-0.2,0.6-0.5c0-0.1-0.1-0.2-0.1-0.4c-0.1-0.2-0.1-0.3-0.2-0.5
			c-0.1-0.2-0.1-0.3-0.2-0.5c0-0.1-0.1-0.2-0.1-0.4c-0.2-0.9,0-1.7,0.6-2.5c0.2-0.3,0.4-0.6,0.7-0.8l0.5-0.3l0.5-0.3v-0.2
			c0-0.3-0.2-0.5-0.5-0.5c0,0-0.1,0-0.1,0c-0.7,0.1-1.2,0.6-1.5,1.6c-0.3,0.6-0.4,1.3-0.4,2.1c-0.2-0.6-0.5-1.2-0.9-1.8
			c-0.3-0.5-0.9-0.9-1.5-0.9c-0.2,0-0.5,0.1-0.7,0.2c-0.2,0.2-0.3,0.4-0.3,0.6c0,0.1,0,0.2,0,0.3C32.2,11.6,32.5,11.5,32.8,11.5z"/>
		<path class="st0" d="M20.5,7.2c0.2,0.1,0.3,0.2,0.3,0.3c0,0,0,0,0,0.1h0c-0.1,0-0.1,0-0.1-0.1l-0.1-0.1L20.5,7.2
			c-0.2,0-0.3-0.1-0.4-0.1h-0.1l0,0C20,7,20.1,6.9,20.2,6.8c0.1-0.1,0.2-0.1,0.4-0.1c0.1,0,0.2,0.1,0.3,0.2h-0.1c-0.1,0-0.2,0-0.4,0
			c-0.1,0-0.2,0.1-0.3,0.2C20.3,7.1,20.4,7.1,20.5,7.2z"/>
		<path class="st0" d="M35.3,11.5c0.1-0.3,0.2-0.4,0.3-0.4c0,0,0,0,0.1,0c0,0,0,0,0,0.1c0,0.1-0.1,0.1-0.1,0.2l-0.1,0.2l-0.1,0.1
			c-0.1,0.2-0.1,0.3-0.1,0.5c0,0.1,0,0.1,0,0.2l0,0c-0.1-0.1-0.2-0.3-0.3-0.4c-0.1-0.2-0.1-0.4-0.1-0.5c0-0.2,0.1-0.3,0.2-0.4
			c0,0.1,0,0.1,0,0.2c0,0.2,0,0.3,0,0.5c0,0.2,0.1,0.3,0.2,0.4C35.2,11.9,35.3,11.7,35.3,11.5z"/>
		<path class="st0" d="M37.2,17.8c0.1-0.2,0.1-0.3,0.2-0.3l0,0c0,0,0,0,0,0.1c0,0.1,0,0.1-0.1,0.1L37.2,17.8l0,0.1
			c-0.1,0.1-0.1,0.3-0.1,0.4c0,0,0,0.1,0,0.1l0,0c-0.1-0.1-0.2-0.2-0.3-0.3c-0.1-0.1-0.1-0.3-0.1-0.4c0-0.1,0.1-0.2,0.2-0.3
			c0,0,0,0.1,0,0.1c0,0.1,0,0.3,0,0.4c0,0.1,0.1,0.2,0.2,0.3C37.1,18.1,37.2,18,37.2,17.8z"/>
		<path class="st0" d="M33.1,10.5c-0.2,0-0.3,0-0.3,0.1l0,0l0,0h0.1L33.1,10.5l0.1,0.1c0.1,0,0.2,0,0.3,0h0.1l0,0
			c0-0.1-0.1-0.2-0.2-0.3c-0.1-0.1-0.2-0.1-0.3-0.2c-0.1,0-0.2,0-0.2,0H33c0.1,0,0.2,0.1,0.3,0.1c0.1,0,0.1,0.1,0.2,0.2
			C33.3,10.5,33.2,10.5,33.1,10.5z"/>
		<path class="st0" d="M35,9.6c0.1-0.2,0.3-0.3,0.3-0.2c0,0,0,0,0,0.1c0,0,0,0,0,0.1c0,0-0.1,0.1-0.1,0.1L35,9.6l0,0.2
			c-0.1,0.1-0.2,0.2-0.2,0.3l0,0.1l0,0c-0.1-0.1-0.1-0.3-0.1-0.4c0-0.1,0-0.3,0.1-0.4c0-0.1,0.1-0.2,0.3-0.2l-0.1,0.1
			c-0.1,0.1-0.1,0.2-0.1,0.4c0,0.1,0,0.2,0,0.4C34.8,9.8,34.9,9.7,35,9.6z"/>
		<path class="st0" d="M29.6,4.7c0.2-0.3,0.4-0.4,0.5-0.3c0,0,0,0,0.1,0.1c0,0,0,0.1,0,0.1c0,0.1-0.1,0.1-0.2,0.2l-0.2,0.1l-0.1,0.1
			c-0.1,0.1-0.3,0.3-0.3,0.5l-0.1,0.1l0,0C29.1,5.4,29,5.2,28.9,5c-0.1-0.2-0.1-0.4,0-0.6c0-0.2,0.2-0.4,0.4-0.4
			c0,0.1-0.1,0.1-0.1,0.2c-0.1,0.2-0.1,0.4-0.1,0.5c0,0.2,0,0.4,0.1,0.5C29.3,5,29.4,4.9,29.6,4.7z"/>
		<path class="st0" d="M22.3,6.2c0.1,0.3,0.2,0.4,0.4,0.4c0,0,0.1,0,0.1,0c0,0,0,0,0-0.1c0-0.1-0.1-0.1-0.1-0.2l-0.1-0.2L22.4,6
			c-0.1-0.2-0.1-0.3-0.2-0.5c0-0.1,0-0.1,0-0.2l0,0c-0.2,0.1-0.3,0.3-0.4,0.4c-0.1,0.2-0.2,0.4-0.1,0.6c0,0.2,0.1,0.3,0.2,0.4
			c0-0.1,0-0.1,0-0.2C22,6.4,22,6.2,22,6c0-0.1,0.1-0.3,0.1-0.4C22.2,5.8,22.2,6,22.3,6.2z"/>
		<path class="st0" d="M13.7,13c0.2-0.2,0.3-0.3,0.2-0.4c0,0,0,0-0.1,0c0,0,0,0-0.1,0c-0.1,0-0.1,0.1-0.1,0.2l-0.1,0.2L13.5,13
			c-0.1,0.1-0.2,0.2-0.4,0.3L13,13.4l0,0c0.1,0.1,0.3,0.1,0.5,0.2c0.2,0,0.3,0,0.5-0.1c0.1,0,0.2-0.2,0.3-0.3l-0.1,0.1
			c-0.1,0.1-0.3,0.1-0.4,0.1c-0.2,0-0.3,0-0.4-0.1C13.4,13.2,13.5,13.1,13.7,13z"/>
		<path class="st0" d="M9.9,14.6c0,0.2,0,0.2,0.1,0.3l0,0l0,0c0,0,0-0.1,0-0.1L9.9,14.6c0-0.1,0-0.2,0.1-0.3v-0.1l0,0
			c-0.1,0-0.2,0.1-0.3,0.1c-0.1,0-0.2,0.1-0.2,0.2c0,0.1,0,0.2,0,0.2c0,0,0-0.1,0-0.1c0-0.1,0.1-0.2,0.1-0.2
			c0.1-0.1,0.1-0.1,0.2-0.1C9.9,14.4,9.9,14.5,9.9,14.6z"/>
		<path class="st0" d="M7.9,15.7c0.2-0.1,0.4-0.2,0.3-0.3c0,0,0,0,0-0.1c0,0,0,0-0.1,0c-0.1,0-0.1,0.1-0.2,0.1l-0.1,0.1l-0.1,0.1
			c-0.1,0.1-0.3,0.1-0.4,0.2H7.2l0,0c0.1,0.1,0.3,0.2,0.4,0.3c0.1,0.1,0.3,0.1,0.5,0.1c0.1,0,0.3-0.1,0.3-0.2H8.3
			c-0.1,0-0.3,0-0.5,0c-0.1,0-0.3-0.1-0.4-0.2C7.6,15.8,7.8,15.8,7.9,15.7z"/>
		<path class="st0" d="M11.6,14.5c0.2,0.1,0.4,0.1,0.5,0c0,0,0,0,0-0.1c0,0,0,0,0-0.1c-0.1,0-0.1,0-0.2,0h-0.2h-0.1
			c-0.1,0-0.3-0.1-0.4-0.1L11,14.1l0,0c0,0.2,0,0.3,0.1,0.5c0.1,0.2,0.2,0.3,0.3,0.4c0.1,0.1,0.3,0.1,0.4,0l-0.1-0.1
			c-0.1-0.1-0.2-0.2-0.3-0.3c-0.1-0.1-0.2-0.2-0.2-0.4C11.3,14.3,11.5,14.4,11.6,14.5z"/>
		<path class="st0" d="M24.6,5.4c0,0.3-0.1,0.4-0.2,0.4h-0.1c0,0,0,0,0-0.1c0-0.1,0-0.1,0.1-0.2l0.1-0.2V5.3c0-0.1,0-0.3,0-0.4
			c0,0,0-0.1,0-0.1l0,0c0.2,0.1,0.3,0.2,0.4,0.3C25,5.1,25,5.3,25,5.4c0,0.1,0,0.3-0.1,0.3c0-0.1,0-0.1,0-0.2c0-0.1,0-0.3-0.1-0.4
			c0-0.1-0.1-0.2-0.2-0.3C24.6,5,24.6,5.2,24.6,5.4z"/>
		<path class="st0" d="M26.2,1.9c0.1-0.2,0.2-0.3,0.3-0.3c0.1,0,0,0,0,0c0,0,0,0,0,0.1c0,0.1-0.1,0.1-0.1,0.1l0,0.2l-0.1,0.1
			c-0.1,0.1-0.1,0.3-0.2,0.4v0.1l0,0c-0.1-0.1-0.2-0.3-0.2-0.4c0-0.2,0-0.3,0-0.5c0-0.1,0.1-0.2,0.2-0.3c0,0,0,0.1-0.1,0.1
			c0,0.1,0,0.3,0,0.4c0,0.1,0,0.3,0.1,0.4C26.1,2.3,26.1,2.1,26.2,1.9z"/>
		<path class="st0" d="M17.1,8.1c0.1,0.2,0.2,0.2,0.3,0.2l0,0c0,0,0,0,0-0.1c0,0-0.1-0.1-0.1-0.1L17.1,8.1l0-0.1
			C17,7.9,17,7.8,16.9,7.7V7.6l0,0c-0.1,0.1-0.2,0.2-0.2,0.4c0,0.1,0,0.3,0,0.4c0,0.1,0.1,0.2,0.2,0.2c0,0,0-0.1-0.1-0.1
			c0-0.1-0.1-0.2-0.1-0.3c0-0.1,0-0.2,0.1-0.3C16.9,7.9,17,8,17.1,8.1z"/>
		<path class="st0" d="M13.2,9.4c-0.2-0.1-0.3-0.2-0.4-0.1c0,0,0,0,0,0.1c0,0,0,0,0,0.1c0,0,0.1,0.1,0.1,0.1l0.1,0.1l0.1,0.1
			c0.1,0.1,0.2,0.2,0.3,0.3l0.1,0.1l0,0c0.1-0.1,0.1-0.3,0.1-0.4c0-0.1,0-0.3-0.1-0.4c0-0.1-0.1-0.2-0.3-0.2l0.1,0.1
			c0.1,0.1,0.1,0.2,0.1,0.3c0,0.1,0,0.2,0,0.4C13.4,9.7,13.3,9.5,13.2,9.4z"/>
		<path class="st0" d="M14.8,8.7c0.2,0.1,0.4,0.2,0.4,0.1c0,0,0,0,0-0.1c0,0,0,0,0-0.1c-0.1,0-0.1,0-0.2-0.1h-0.2h-0.1
			c-0.1,0-0.3-0.1-0.4-0.2l-0.1-0.1l0,0c0,0.2,0,0.3,0,0.5c0,0.2,0.1,0.3,0.2,0.4c0.1,0.1,0.2,0.1,0.3,0.1l-0.1-0.1
			c-0.1-0.1-0.2-0.2-0.2-0.3c-0.1-0.1-0.1-0.3-0.1-0.4C14.5,8.5,14.7,8.6,14.8,8.7z"/>
		<path class="st0" d="M9.7,8c-0.1,0.1-0.1,0.2,0,0.3h0.1c0,0,0-0.1,0-0.1C9.8,8.1,9.8,8.1,9.7,8c0.1-0.1,0.2-0.2,0.2-0.3L10,7.7
			l0,0c-0.1,0-0.2,0-0.3,0c-0.1,0-0.2,0.1-0.3,0.1C9.4,7.9,9.3,8,9.4,8l0-0.1c0.1-0.1,0.1-0.1,0.2-0.2c0.1,0,0.2-0.1,0.3-0.1
			C9.8,7.8,9.7,7.9,9.7,8z"/>
		<path class="st0" d="M21.6,1.5c-0.2-0.3-0.4-0.4-0.5-0.4c0,0-0.1,0-0.1,0.1c0,0,0,0.1,0,0.1c0,0,0.1,0.1,0.2,0.2l0.2,0.1l0.1,0.1
			c0.1,0.2,0.3,0.3,0.3,0.5l0,0.2H22c0.2-0.2,0.3-0.4,0.4-0.6c0.1-0.2,0.1-0.5,0-0.7c0-0.2-0.2-0.3-0.4-0.4c0,0.1,0.1,0.1,0.1,0.2
			c0.1,0.2,0.1,0.4,0,0.6c0,0.2-0.1,0.4-0.2,0.6C21.9,1.9,21.8,1.7,21.6,1.5z"/>
		<path class="st0" d="M31.3,6.1c-0.1,0.2-0.1,0.3,0,0.4h0.1l0,0c0,0,0-0.1,0-0.2C31.4,6.3,31.4,6.2,31.3,6.1
			c0.1-0.1,0.1-0.2,0.2-0.4l0.1-0.1l0,0c-0.1,0-0.3,0-0.4,0.1c-0.1,0-0.2,0.1-0.3,0.2c-0.1,0.1-0.1,0.2,0,0.3c0,0,0-0.1,0-0.1
			c0-0.1,0.1-0.2,0.2-0.3c0.1-0.1,0.2-0.1,0.3-0.1C31.4,5.9,31.4,6,31.3,6.1z"/>
		<path class="st0" d="M37.2,22c0,0.2,0,0.3,0.2,0.3h0.1l0,0c0,0,0-0.1,0-0.1l-0.1-0.1V22c0-0.1,0-0.2,0-0.4v-0.1l0,0
			c-0.1,0-0.2,0.1-0.3,0.2c-0.1,0.1-0.2,0.2-0.2,0.3c0,0.1,0,0.2,0.1,0.3c0,0,0-0.1,0-0.1c0-0.1,0.1-0.2,0.1-0.3
			c0.1-0.1,0.1-0.2,0.2-0.2C37.2,21.8,37.2,21.9,37.2,22z"/>
		<path class="st0" d="M37.6,12.3c0.1-0.1,0.1-0.3,0-0.4c-0.1-0.1-0.1-0.2-0.2-0.3c-0.1-0.1-0.2-0.2-0.3-0.2c-0.1-0.1-0.2-0.1-0.3,0
			c-0.1,0.1-0.1,0.3,0,0.4c0.1,0.1,0.1,0.2,0.2,0.3c0.1,0.1,0.2,0.2,0.3,0.2C37.3,12.4,37.5,12.3,37.6,12.3z M36.7,11.7
			c-0.1-0.1-0.1-0.2,0-0.2c0.1,0,0.1,0,0.3,0l0.2,0.2l-0.3,0.3C36.9,11.8,36.8,11.7,36.7,11.7z M36.9,11.9l0.3-0.3l0,0.1l0.1,0.1
			l0.1,0.1c0.1,0.1,0.1,0.2,0,0.3c-0.1,0-0.1,0-0.3,0c-0.1-0.1-0.2-0.1-0.2-0.2L36.9,11.9z"/>
		<path class="st0" d="M36.2,16.8c0-0.1-0.1-0.2-0.2-0.2c-0.1,0-0.2,0-0.4,0c-0.1,0-0.2,0-0.3,0.1c-0.1,0-0.2,0.1-0.2,0.3
			c0,0.1,0.1,0.2,0.2,0.2c0.1,0,0.2,0,0.4,0c0.1,0,0.2,0,0.3-0.1C36.1,17,36.2,16.9,36.2,16.8z M35.3,17c-0.1,0-0.1-0.1-0.1-0.1
			s0-0.1,0.2-0.2l0.2-0.1v0.3L35.3,17z M35.6,17v-0.4h0.3c0.1,0,0.2,0,0.2,0.1c0,0.1,0,0.1-0.1,0.2c-0.1,0-0.2,0-0.3,0L35.6,17z"/>
		<path class="st0" d="M37.7,24c0.1,0,0.3,0,0.3-0.1c0.1-0.1,0.1-0.2,0.2-0.4c0-0.1,0.1-0.3,0.1-0.4c0-0.1-0.1-0.2-0.2-0.3
			c-0.1,0-0.3,0-0.3,0.1c-0.1,0.1-0.2,0.2-0.2,0.4c0,0.1-0.1,0.3-0.1,0.4C37.5,23.8,37.6,24,37.7,24z M37.9,23
			c0.1-0.1,0.1-0.1,0.2-0.1s0.1,0.1,0.1,0.2c0,0.1,0,0.2-0.1,0.3l-0.4-0.1C37.8,23.2,37.8,23.1,37.9,23z M37.7,23.3l0.4,0.1v0.1
			l-0.1,0.1L38,23.8c-0.1,0.1-0.2,0.2-0.2,0.2c-0.1,0-0.1-0.1-0.1-0.2c0-0.1,0-0.2,0.1-0.3L37.7,23.3z"/>
		<path class="st0" d="M33.9,13.4c0.2-0.1,0.3-0.4,0.2-0.6c0-0.2-0.1-0.4-0.2-0.6c-0.1-0.2-0.2-0.3-0.4-0.5
			c-0.1-0.1-0.4-0.2-0.6-0.1c-0.2,0.1-0.3,0.3-0.2,0.6c0,0.2,0.1,0.4,0.2,0.6c0.1,0.2,0.2,0.3,0.4,0.5
			C33.5,13.4,33.7,13.5,33.9,13.4z M32.9,12.1c-0.1-0.2-0.1-0.3,0-0.4c0.1-0.1,0.2,0,0.4,0.1c0.1,0.1,0.2,0.2,0.3,0.4L33,12.5
			C33,12.4,32.9,12.2,32.9,12.1L32.9,12.1z M33.1,12.6l0.5-0.3l0.1,0.1c0,0.1,0.1,0.2,0.1,0.2c0,0.1,0.1,0.2,0.1,0.2
			c0.1,0.2,0.1,0.4,0,0.5c-0.1,0.1-0.2,0-0.4-0.1c-0.1-0.1-0.2-0.2-0.3-0.4L33.1,12.6z"/>
		<path class="st0" d="M29.5,3c0.1,0,0.2-0.2,0.2-0.4c0-0.2,0-0.3-0.1-0.5c0-0.2-0.1-0.3-0.2-0.4c-0.1-0.1-0.2-0.2-0.4-0.2
			c-0.2,0.1-0.3,0.2-0.3,0.4c0,0.2,0,0.3,0.1,0.5c0,0.2,0.1,0.3,0.2,0.4C29.2,3,29.4,3,29.5,3z M29,1.9c0-0.2,0-0.3,0.1-0.3
			s0.1,0,0.3,0.1c0.1,0.1,0.1,0.2,0.1,0.3L29,2.2C29,2.1,29,2,29,1.9L29,1.9z M29,2.3l0.5-0.1v0.1c0,0.1,0,0.1,0,0.2
			c0,0.1,0,0.1,0,0.2c0,0.2,0,0.3-0.1,0.3s-0.2,0-0.3-0.2C29.1,2.7,29,2.6,29,2.5L29,2.3z"/>
		<path class="st0" d="M24.7,3.6c0.1,0.1,0.2,0,0.3,0c0.1-0.1,0.2-0.2,0.2-0.3c0.1-0.1,0.1-0.2,0.1-0.3c0-0.1,0-0.2-0.1-0.3
			c-0.1-0.1-0.2-0.1-0.3,0c-0.1,0.1-0.2,0.2-0.2,0.3c-0.1,0.1-0.1,0.2-0.1,0.3C24.5,3.4,24.6,3.6,24.7,3.6z M25,2.8
			c0.1-0.1,0.1-0.1,0.2-0.1c0.1,0,0.1,0.1,0,0.2c0,0.1-0.1,0.2-0.1,0.2L24.8,3C24.9,2.9,24.9,2.9,25,2.8L25,2.8z M24.8,3l0.3,0.2
			v0.1L25,3.4L25,3.5c-0.1,0.1-0.2,0.1-0.2,0.1c-0.1,0-0.1-0.1-0.1-0.2c0-0.1,0.1-0.2,0.1-0.2L24.8,3z"/>
		<path class="st0" d="M16.2,8.9c-0.1-0.1-0.2-0.1-0.4-0.1c-0.2,0-0.3,0.1-0.4,0.2c-0.1,0.1-0.2,0.2-0.3,0.3c-0.1,0.2-0.1,0.3,0,0.4
			c0.1,0.1,0.3,0.2,0.4,0.1c0.2,0,0.3-0.1,0.5-0.2c0.1-0.1,0.2-0.2,0.3-0.3C16.3,9.2,16.3,9,16.2,8.9z M15.3,9.7
			c-0.1,0.1-0.2,0.1-0.3,0c0-0.1,0-0.2,0.1-0.3c0.1-0.1,0.2-0.2,0.3-0.2l0.2,0.4C15.5,9.6,15.4,9.7,15.3,9.7z M15.7,9.5l-0.3-0.4
			l0.1-0.1L15.7,9l0.2-0.1c0.2-0.1,0.3-0.1,0.3,0c0,0.1,0,0.2,0,0.3c-0.1,0.1-0.2,0.2-0.3,0.2L15.7,9.5z"/>
		<path class="st0" d="M31.3,6.7c-0.1,0-0.2,0.1-0.3,0.3c-0.1,0.2-0.1,0.3-0.1,0.5c0,0.2,0,0.3,0.1,0.5c0.1,0.2,0.2,0.3,0.3,0.3
			c0.1,0,0.2-0.1,0.3-0.3c0.1-0.2,0.1-0.3,0.1-0.5c0-0.2,0-0.3,0-0.5C31.6,6.8,31.4,6.7,31.3,6.7z M31.4,7.9c0,0.2-0.1,0.2-0.2,0.2
			S31,8.1,31,7.9c0-0.1,0-0.2,0-0.3h0.4C31.4,7.7,31.4,7.8,31.4,7.9z M31.4,7.5H31V7.4c0-0.1,0-0.1,0-0.2c0-0.1,0-0.1,0-0.2
			c0.1-0.2,0.1-0.3,0.2-0.3s0.1,0.1,0.2,0.2c0,0.1,0,0.2,0,0.3L31.4,7.5z"/>
		<path class="st0" d="M34.1,15.2L34.1,15.2l0.1-0.1h0.1l0,0c0,0.1,0,0.1,0,0.1C34.2,15.3,34.1,15.3,34.1,15.2c-0.1,0-0.2,0-0.3-0.1
			c0-0.1,0-0.1,0-0.2c0-0.1,0-0.1,0.1-0.1H34h0l0,0c0.1-0.1,0.2-0.2,0.1-0.3c-0.1-0.1-0.1-0.1-0.3-0.1l-0.1,0.1
			c-0.2,0.1-0.2,0.1-0.3,0.1c0-0.1,0-0.1,0.1-0.1c0.1-0.1,0.2-0.1,0.3-0.1c0,0,0-0.1,0-0.1C33.9,14,33.8,14,33.7,14l-0.3,0.1
			c-0.1,0-0.2,0-0.2,0c0-0.1,0-0.1,0.1-0.1c0.1,0,0.3,0,0.4,0c0.1,0,0.1-0.1,0-0.1l0,0l0,0c0,0,0-0.1,0-0.1c0,0,0.1,0,0.1,0
			c0,0,0,0,0.1,0c0,0,0,0.1,0,0.1c0,0-0.1,0.1-0.1,0.1l0,0c0.2,0,0.3,0,0.3,0.1c0,0.1,0,0.2,0,0.2c0.1,0,0.2,0.1,0.3,0.2
			c0,0.1,0,0.2,0,0.2c0,0.1-0.1,0.2-0.2,0.2l0,0h0h0l0,0c-0.1,0.1-0.1,0.1-0.1,0.2C34,15.2,34,15.2,34.1,15.2
			C34.1,15.2,34.1,15.2,34.1,15.2z"/>
		<path class="st0" d="M29.9,1.6H30l0,0c0,0,0,0,0,0c0-0.1,0-0.1-0.1-0.1c-0.1,0-0.1,0-0.2,0.1c0,0.1,0,0.1,0,0.2
			c0,0.1,0,0.1,0.1,0.1c0,0,0.1,0,0.2,0H30h0.1c0.1,0,0.2,0,0.3,0.1c0,0.1,0,0.2-0.1,0.2h-0.2c-0.2,0-0.2,0-0.2,0.1
			c0,0.1,0,0.1,0.1,0c0.1,0,0.2-0.1,0.2-0.1c0,0,0.1,0.1,0.1,0.1c0,0.1,0,0.2-0.1,0.2l-0.2,0.1c-0.1,0-0.1,0.1-0.1,0.1
			c0,0.1,0,0.1,0.1,0c0.1,0,0.2-0.1,0.3-0.2c0.1,0,0.1,0,0.1,0.1v0.1c0,0,0,0,0.1,0c0,0,0,0,0,0c0,0,0,0,0-0.1c0,0,0-0.1-0.1-0.1
			c0,0-0.1,0-0.1,0l0,0c0.1-0.1,0.1-0.2,0.1-0.3c0-0.1-0.1-0.1-0.1-0.1c0.1-0.1,0.1-0.2,0.1-0.3c0-0.1-0.1-0.1-0.1-0.2
			c-0.1,0-0.1,0-0.2,0H30c-0.1,0-0.2,0-0.2-0.1C29.8,1.8,29.8,1.7,29.9,1.6C29.8,1.7,29.9,1.7,29.9,1.6z"/>
		<path class="st0" d="M24,1.4L24,1.4L24,1.4L24,1.4L24,1.4C24,1.4,24,1.3,24,1.4c0-0.1-0.1-0.1-0.1-0.1c0,0-0.1,0.1-0.1,0.1
			c0,0,0,0.1,0,0.1c0,0,0,0.1,0.1,0.1h0.1c0.1,0,0.1,0,0.1,0.1c0,0.1-0.1,0.1-0.1,0.1h-0.1c-0.1,0-0.2,0-0.2,0c0,0,0,0,0.1,0.1
			c0.1,0,0.1,0,0.2,0c0,0,0,0.1,0,0.1c0,0.1-0.1,0.1-0.1,0.1h-0.2c-0.1,0-0.1,0-0.1,0c0,0,0,0,0,0.1c0.1,0,0.1,0,0.2,0
			c0,0,0.1,0,0,0.1l0,0l0,0l0,0l0,0c0,0,0-0.1,0-0.1c0,0,0,0-0.1,0l0,0c0.1,0,0.2,0,0.2-0.1c0,0,0-0.1,0-0.1c0.1,0,0.3,0,0.3-0.1
			c0,0,0-0.1,0-0.1c0,0-0.1-0.1-0.1-0.1h-0.1C23.9,1.6,23.8,1.5,24,1.4L24,1.4L24,1.4z"/>
		<path class="st0" d="M36,9.8L36,9.8h0.2c0,0,0,0,0,0.1c0,0,0,0,0,0.1c0,0.1-0.1,0.1-0.2,0c-0.1,0-0.2-0.1-0.2-0.2
			c0-0.1,0-0.2,0-0.3c0-0.1,0.1-0.1,0.2-0.1c0.1,0,0.1,0,0.2,0l0.1,0.1h0.1l0,0c0.2,0.1,0.3,0.1,0.4,0c0.1-0.1,0.1-0.2,0-0.3L36.5,9
			c-0.2-0.1-0.3-0.2-0.2-0.3c0-0.1,0.1,0,0.2,0c0.1,0.1,0.2,0.2,0.3,0.3c0.1,0,0.1,0,0.1-0.1c0.1-0.1,0.1-0.2,0-0.3
			c-0.1-0.1-0.2-0.2-0.3-0.2c-0.1-0.1-0.1-0.1-0.1-0.2c0-0.1,0.1,0,0.2,0c0.1,0.1,0.2,0.2,0.3,0.4c0.1,0,0.1,0,0.2,0v0.1
			c0,0,0,0,0.1,0c0,0,0.1,0,0.1,0.1c0,0,0,0.1,0,0.1c0,0-0.1,0.1-0.1,0.1c-0.1,0-0.1,0-0.2,0l0,0c0.1,0.2,0.1,0.3,0.1,0.4
			c-0.1,0.1-0.1,0.1-0.2,0.1c0.1,0.1,0.1,0.3,0,0.4c0,0.1-0.1,0.1-0.2,0.1c-0.1,0-0.2,0-0.3-0.1l0,0h-0.1h-0.1l0,0
			C36.1,9.7,36,9.7,36,9.8C35.9,9.9,35.9,9.9,36,9.8C36,9.9,36,9.9,36,9.8z"/>
		<path class="st0" d="M8.3,13.5L8.3,13.5H8.2l0,0c0,0,0,0,0,0.1C8.2,13.6,8.2,13.6,8.3,13.5c0.1,0,0.1-0.1,0.1-0.1
			c0-0.1,0-0.2-0.1-0.2c0,0-0.1-0.1-0.1-0.1c0,0-0.1,0-0.1,0L8,13.2l0,0l0,0c-0.1,0.1-0.2,0.1-0.3,0c0-0.1,0-0.2,0-0.3l0.1-0.1
			C8,12.7,8,12.7,8,12.6c-0.1-0.1-0.1,0-0.1,0c-0.1,0.1-0.1,0.1-0.1,0.2c0,0-0.1,0-0.1-0.1c-0.1-0.1-0.1-0.2,0-0.3
			c0-0.1,0.1-0.1,0.2-0.2c0.1-0.1,0.1-0.1,0-0.2c-0.1-0.1-0.1,0-0.1,0c-0.1,0.1-0.1,0.2-0.1,0.3c-0.1,0-0.1,0-0.1,0l0,0l0,0
			c0,0,0,0-0.1,0c0,0,0,0,0,0.1c0,0,0,0,0,0.1c0,0,0.1,0,0.1,0c0,0,0.1,0,0.1,0l0,0c0,0.1,0,0.2,0,0.3c0,0.1,0.1,0.1,0.2,0.1
			c0,0.1,0,0.2,0,0.3c0,0.1,0.1,0.1,0.2,0.1c0.1,0,0.2,0,0.2-0.1l0,0l0,0l0,0l0,0c0.1-0.1,0.1-0.1,0.2,0c0,0,0,0.1,0,0.1
			C8.4,13.4,8.4,13.5,8.3,13.5C8.3,13.5,8.3,13.5,8.3,13.5z"/>
		<path class="st0" d="M37.9,12.3c0,0,0,0,0,0.1s0,0.1,0,0.1h0.8c0.1,0,0.1-0.1,0.1-0.2c0,0,0-0.1,0-0.1c0,0-0.1,0-0.1-0.1h-0.1l0,0
			c0,0,0.2,0.1,0.2,0.2s0,0.1-0.1,0.1c-0.1,0-0.2,0-0.3-0.1C38.1,12.3,38,12.3,37.9,12.3z"/>
		<path class="st0" d="M35.5,9.3c0,0,0,0.1,0.1,0.1s0.1,0.1,0.2,0l0.1-0.1l0.1-0.1L36,9.1l0.1-0.1l0.1-0.1c0.1-0.1,0.1-0.2,0.2-0.4
			c0-0.1,0-0.3-0.2-0.3c-0.1,0-0.1,0-0.2,0c-0.1,0-0.1,0.1-0.2,0.1c0,0,0,0.1,0,0.1c0,0,0,0.1,0,0.1c0.2-0.1,0.3-0.1,0.4-0.1
			c0,0,0,0.1,0,0.1c0,0,0,0,0,0c-0.1,0.1-0.2,0.3-0.4,0.4C35.7,9.1,35.6,9.2,35.5,9.3z"/>
		<path class="st0" d="M37.4,13c0,0,0,0,0.1-0.1s0-0.1,0-0.1h-0.1h-0.1h-0.1h-0.1H37l-0.3-0.1c-0.1,0-0.2,0.1-0.2,0.1
			c0,0,0,0.1,0,0.1c0,0,0.1,0.1,0.1,0.1h0.1c0,0,0,0,0.1,0c-0.1-0.1-0.1-0.2-0.1-0.2c0,0,0-0.1,0.1-0.1c0,0,0,0,0,0
			c0.1,0,0.2,0.1,0.3,0.2C37.2,13,37.3,13,37.4,13z"/>
		<path class="st0" d="M38,17.2C38,17.2,38,17.2,38,17.2c0-0.1,0-0.1,0-0.1h-0.1h0h-0.1h-0.1h-0.1h-0.2c-0.1,0-0.1,0-0.1,0.1
			c0,0,0,0.1,0,0.1c0,0,0,0.1,0.1,0.1h0.1l0,0c-0.1-0.1-0.1-0.1-0.1-0.1c0.1,0,0.2,0.1,0.2,0.1C37.7,17.3,37.9,17.3,38,17.2z"/>
		<path class="st0" d="M34.7,15.2c0,0,0,0.1,0.1,0.1s0.1,0,0.1,0c0,0,0-0.1,0-0.1V15v-0.1v-0.1v-0.1c0-0.1,0-0.2,0-0.3
			c0-0.1-0.1-0.2-0.2-0.2c0,0-0.1,0-0.1,0c0,0-0.1,0.1-0.1,0.1c0,0,0,0.1,0,0.1c0,0,0,0,0,0.1c0.1-0.1,0.1-0.2,0.2-0.1
			c0,0,0.1,0,0.1,0.1c0,0,0,0,0,0c0,0.1-0.1,0.2-0.1,0.3C34.6,14.9,34.6,15.1,34.7,15.2z"/>
		<path class="st0" d="M39,16.9C39,16.9,39,17,39,16.9c0.2,0.1,0.2,0.1,0.2,0.1c0,0,0-0.1,0-0.1v-0.1v-0.1v-0.1v-0.1
			c0-0.1,0.1-0.2,0.1-0.3c0-0.1,0-0.2-0.1-0.2c0,0,0,0,0.1,0c0,0-0.1,0.1-0.1,0.1c0,0,0,0.1,0,0.1c0,0,0,0,0,0.1
			c0.1-0.1,0.2-0.1,0.2-0.1c0,0,0,0.1,0,0.1c0,0,0,0,0,0c0,0.1-0.1,0.2-0.2,0.3C39.1,16.7,39,16.8,39,16.9z"/>
		<path class="st0" d="M26.8,1.4c0,0-0.1,0-0.1-0.1s0-0.1,0-0.1l0.1-0.1h0.1L27,1h0.1h0.1c0.1-0.1,0.2-0.1,0.3-0.1
			c0.1,0,0.2,0,0.3,0.1c0,0.1,0,0.1,0,0.2c0,0.1-0.1,0.1-0.1,0.1h-0.1c0,0-0.1,0-0.1,0c0.1-0.1,0.1-0.2,0.1-0.3c0,0-0.1,0-0.1,0
			c0,0,0,0,0,0c-0.1,0.1-0.2,0.2-0.3,0.3C27.1,1.3,26.9,1.4,26.8,1.4z"/>
		<path class="st0" d="M10.3,7.3c0,0-0.1,0-0.1,0.1s0,0.1,0,0.1h0.1h0.1h0.1h0.1h0.1h0.3c0.1,0,0.2-0.1,0.2-0.2c0,0,0-0.1,0-0.2
			c0,0-0.1,0-0.1,0.1h-0.1c0,0,0,0-0.1,0c0.1,0.1,0.2,0.2,0.2,0.2c0,0.1,0,0.1-0.1,0.1c-0.1,0-0.3-0.1-0.4-0.1
			C10.5,7.3,10.4,7.3,10.3,7.3z"/>
		<path class="st0" d="M19,1c0,0,0,0,0.1,0s0,0,0,0.1v0.1v0.1l0,0.1l0,0.1v0.1c0,0.1-0.1,0.1-0.1,0.2c-0.1,0.1-0.1,0.1-0.2,0
			c0,0-0.1-0.1-0.1-0.1c0,0,0-0.1,0-0.1l0-0.1c0,0,0,0,0.1,0c0,0.1,0,0.2,0,0.2c0,0,0.1,0,0.1,0c0.1-0.1,0.1-0.2,0.1-0.3
			C18.9,1.2,18.9,1.1,19,1z"/>
		<path class="st0" d="M33.4,8.7c0.2,0,0.4,0,0.6-0.2c0.2-0.1,0.3-0.3,0.3-0.5c0-0.3-0.1-0.5-0.3-0.7c-0.2-0.2-0.4-0.4-0.6-0.5
			c-0.2-0.2-0.3-0.3-0.3-0.4c0,0,0,0,0-0.1h0.1c0.2,0,0.5,0.2,0.9,0.7c0,0,0.1,0,0.1-0.1c0,0,0.1-0.1,0.1-0.1c0-0.1-0.1-0.2-0.4-0.4
			c-0.2-0.1-0.4-0.2-0.6-0.2c-0.1,0-0.2,0-0.3,0c-0.1,0-0.1,0.1-0.1,0.2c0,0.1,0.1,0.2,0.3,0.4l0.2,0.2l0.2,0.2
			c-0.1-0.1-0.2-0.1-0.3-0.1c-0.2,0-0.4,0-0.5,0.2c-0.1,0.1-0.2,0.3-0.3,0.5c-0.1,0.4,0.2,0.7,0.6,0.8C33.2,8.7,33.3,8.7,33.4,8.7
			L33.4,8.7z M33.2,7.5c0.1-0.1,0.2-0.2,0.4-0.2c0.3,0,0.4,0.2,0.4,0.6c0,0.2-0.1,0.3-0.2,0.5c-0.1,0.1-0.2,0.2-0.4,0.2
			c-0.1,0-0.3-0.1-0.3-0.2C33,8.2,33,8.1,33,7.9C33,7.8,33.1,7.6,33.2,7.5z"/>
		<path class="st0" d="M25.5,1.3c0.1-0.1,0.1-0.2,0.1-0.3c0-0.1-0.1-0.2-0.2-0.3c-0.1,0-0.2,0-0.3,0l-0.3,0.1
			c-0.1,0.1-0.2,0.1-0.2,0l0,0l0,0c0.1-0.1,0.3-0.2,0.5-0.2c0,0,0,0,0-0.1c0,0,0,0,0-0.1c0,0-0.1,0-0.2,0.1
			c-0.1,0.1-0.2,0.1-0.2,0.2c0,0,0,0.1,0,0.1c0,0,0,0.1,0.1,0.1c0,0,0.1,0,0.3,0H25h0.1C25.1,1,25.1,1,25,1c0,0.1,0,0.2,0,0.3
			c0,0.1,0.1,0.2,0.2,0.2c0.1,0.1,0.4,0.1,0.5-0.1c0,0,0,0,0,0L25.5,1.3z M25,1.1C25,1,25,1,25,0.9c0.1-0.1,0.2-0.1,0.3,0
			c0.1,0,0.1,0.1,0.2,0.2c0,0.1,0,0.2,0,0.2c0,0.1-0.1,0.1-0.2,0.1c-0.1,0-0.1,0-0.2-0.1C25.1,1.2,25,1.2,25,1.1z"/>
		<path class="st0" d="M18.6,6.8c0,0.1,0,0.2,0,0.3c0,0.1,0.1,0.2,0.2,0.2c0.1,0,0.2,0,0.3-0.1L19.4,7c0.1-0.1,0.1-0.1,0.2-0.1l0,0
			l0,0c0,0.1-0.1,0.2-0.4,0.3c0,0,0,0,0,0.1l0,0c0,0,0.1,0,0.2-0.2c0.1-0.1,0.1-0.1,0.1-0.2c0,0,0-0.1,0-0.1c0,0,0-0.1-0.1-0.1
			c0,0-0.1,0-0.2,0.1l-0.1,0.1L19.1,7c0.1,0,0.1,0,0.2,0c0-0.1,0-0.2,0-0.3c0-0.1-0.1-0.1-0.2-0.2C18.9,6.5,18.7,6.6,18.6,6.8
			C18.6,6.8,18.6,6.8,18.6,6.8L18.6,6.8z M19.1,6.8c0,0,0,0.1,0,0.2c0,0.1-0.1,0.2-0.3,0.1c-0.1,0-0.1-0.1-0.2-0.1
			c-0.1,0-0.1-0.1-0.1-0.2c0-0.1,0.1-0.1,0.1-0.1c0.1,0,0.1,0,0.2,0C19,6.7,19.1,6.8,19.1,6.8L19.1,6.8z"/>
		<path class="st0" d="M23.8,2.6c-0.1,0-0.3,0.1-0.4,0.2c-0.1,0.1-0.1,0.2-0.1,0.3c0,0.2,0.1,0.3,0.2,0.4c0.1,0.1,0.2,0.2,0.4,0.3
			c0.1,0.1,0.2,0.1,0.2,0.2l0,0l0,0c-0.2-0.1-0.4-0.2-0.6-0.3c0,0-0.1,0-0.1,0.1c0,0,0,0.1,0,0.1c0,0.1,0.1,0.1,0.3,0.2
			C23.9,4,24,4,24.1,4c0,0,0,0,0,0c0,0,0.1-0.1,0.1-0.1c0-0.1-0.1-0.1-0.2-0.2l-0.2-0.1l-0.2-0.1c0.1,0,0.1,0,0.2,0
			c0.1,0,0.2,0,0.3-0.1c0.1-0.1,0.2-0.2,0.2-0.3C24.3,2.8,24.1,2.6,23.8,2.6C23.9,2.6,23.9,2.6,23.8,2.6L23.8,2.6z M24.1,3.3
			c0,0.1-0.1,0.1-0.2,0.2c-0.2,0-0.3-0.1-0.3-0.3c0-0.1,0-0.2,0.1-0.3c0-0.1,0.1-0.2,0.2-0.2c0.1,0,0.2,0,0.2,0.1
			c0.1,0.1,0.1,0.1,0.1,0.2C24.2,3.1,24.1,3.2,24.1,3.3z"/>
		<path class="st0" d="M20.6,0.7c0-0.1-0.1-0.2-0.2-0.3c-0.1-0.1-0.2-0.1-0.4-0.1c-0.1,0-0.3,0.2-0.3,0.3c-0.1,0.1-0.1,0.3-0.2,0.4
			c0,0.1-0.1,0.2-0.1,0.2l0,0l0,0c0-0.2,0.1-0.5,0.2-0.7c0,0,0,0-0.1-0.1c0,0-0.1,0-0.1,0c-0.1,0-0.1,0.1-0.1,0.3c0,0.1,0,0.2,0,0.4
			c0,0.1,0,0.1,0.1,0.1c0,0,0.1,0,0.1,0c0.1,0,0.1-0.1,0.2-0.3L19.8,1l0.1-0.2c0,0.1,0,0.1,0,0.2c0,0.1,0.1,0.2,0.2,0.3
			c0.1,0,0.2,0,0.3,0c0.1,0,0.2-0.1,0.3-0.2C20.7,0.9,20.7,0.8,20.6,0.7z M20,1c-0.1,0-0.2-0.1-0.2-0.2c0-0.2,0-0.3,0.3-0.3
			c0.1,0,0.2,0,0.3,0c0.1,0,0.2,0.1,0.2,0.2c0,0.1,0,0.2-0.1,0.2C20.4,1,20.4,1,20.3,1C20.2,1.1,20.1,1.1,20,1L20,1z"/>
		<path class="st0" d="M38.5,12c0.1-0.1,0.2-0.2,0.2-0.3c0-0.1,0-0.3-0.1-0.4c-0.1-0.1-0.3-0.2-0.4-0.2c-0.2,0-0.3,0-0.5,0
			c-0.2,0-0.2,0-0.3,0l0,0l0,0c0.2-0.1,0.4-0.1,0.7-0.1c0,0,0-0.1,0-0.1c0,0,0-0.1,0-0.1c0,0-0.2,0-0.3,0c-0.1,0-0.2,0.1-0.3,0.1
			c0,0-0.1,0.1-0.1,0.1c0,0,0,0.1,0,0.1c0,0,0.1,0.1,0.3,0.1H38c-0.1,0-0.1,0-0.2,0.1c-0.1,0.1-0.1,0.2-0.2,0.3c0,0.1,0,0.2,0.1,0.3
			C37.9,12.2,38.2,12.2,38.5,12C38.4,12,38.4,12,38.5,12L38.5,12z M37.9,11.6c0-0.1,0-0.2,0.1-0.3c0.1-0.1,0.3-0.1,0.4,0.1
			c0.1,0.1,0.1,0.2,0.1,0.3c0,0.1,0,0.2-0.1,0.3C38.4,12,38.3,12,38.2,12c-0.1,0-0.1-0.1-0.2-0.1C37.9,11.8,37.9,11.7,37.9,11.6
			L37.9,11.6z"/>
		<path class="st0" d="M38.8,16.7c0-0.1,0-0.3,0-0.4c0-0.1-0.1-0.2-0.3-0.3c-0.1-0.1-0.3-0.1-0.5,0c-0.1,0.1-0.3,0.2-0.4,0.3
			c-0.1,0.1-0.2,0.1-0.3,0.1l0,0l0,0c0-0.1,0.2-0.2,0.5-0.4c0,0,0-0.1,0-0.1c0,0,0,0-0.1-0.1c-0.1,0-0.1,0.1-0.3,0.2
			c-0.1,0.1-0.2,0.2-0.2,0.3c0,0,0,0.1,0,0.1c0,0.1,0,0.1,0.1,0.1c0.1,0,0.2,0,0.3-0.1l0.2-0.1l0.2-0.1c0,0-0.1,0.1-0.1,0.2
			c-0.1,0.1-0.1,0.2,0,0.3c0.1,0.1,0.1,0.2,0.3,0.2c0.2,0.1,0.5,0,0.6-0.2C38.8,16.8,38.8,16.8,38.8,16.7L38.8,16.7z M38.1,16.7
			c0-0.1,0-0.2,0-0.3c0.1-0.2,0.2-0.2,0.4-0.1c0.1,0,0.2,0.1,0.2,0.2c0.1,0.1,0.1,0.2,0.1,0.3c0,0.1-0.1,0.1-0.2,0.1
			c-0.1,0-0.2,0-0.2,0C38.2,16.8,38.1,16.8,38.1,16.7z"/>
		<path class="st0" d="M29.4,7c-0.1,0-0.2,0.1-0.3,0.2c-0.1,0.1-0.1,0.2-0.1,0.3c0,0.1,0.1,0.2,0.2,0.3c0.1,0.1,0.2,0.1,0.3,0.2
			c0.1,0.1,0.2,0.1,0.2,0.1l0,0l0,0c-0.2,0-0.4,0-0.6-0.1l0,0c0,0,0,0,0,0.1c0,0,0.1,0.1,0.3,0.1c0.1,0,0.2,0,0.3,0c0,0,0.1,0,0.1,0
			c0,0,0-0.1,0-0.1c0-0.1-0.1-0.1-0.2-0.2l-0.1-0.1l-0.1-0.1c0.1,0,0.1,0,0.2,0c0.1,0,0.2-0.1,0.3-0.2c0.1-0.1,0.1-0.2,0.1-0.3
			C29.8,7.1,29.6,7,29.4,7z M29.7,7.6c0,0.1-0.1,0.1-0.2,0.2c-0.2,0-0.2-0.1-0.3-0.3c0-0.1,0-0.2,0-0.3c0-0.1,0.1-0.2,0.2-0.2
			c0.1,0,0.1,0,0.2,0.1c0,0.1,0.1,0.1,0.1,0.2C29.7,7.4,29.7,7.5,29.7,7.6L29.7,7.6z"/>
		<path class="st0" d="M37.2,24.2c0-0.1,0-0.3,0-0.4c-0.1-0.1-0.2-0.2-0.3-0.2c-0.2,0-0.3,0-0.4,0.1c-0.1,0.1-0.2,0.2-0.4,0.3
			c-0.1,0.1-0.2,0.2-0.2,0.1l0,0l0,0c0-0.1,0.2-0.3,0.5-0.5c0,0,0-0.1,0-0.1c0,0,0,0-0.1,0c-0.1,0-0.1,0.1-0.3,0.2
			c-0.1,0.1-0.1,0.2-0.2,0.3c0,0,0,0.1,0,0.1c0,0.1,0.1,0.1,0.1,0.1c0.1,0,0.2,0,0.3-0.1l0.1-0.1l0.1-0.1c0,0-0.1,0.1-0.1,0.2
			c-0.1,0.1-0.1,0.2,0,0.3c0.1,0.1,0.2,0.2,0.3,0.2c0.2,0.1,0.5-0.1,0.5-0.3C37.2,24.3,37.2,24.3,37.2,24.2L37.2,24.2z M36.4,24.2
			c-0.1-0.1-0.1-0.2-0.1-0.3c0-0.2,0.2-0.2,0.4-0.2c0.1,0,0.2,0.1,0.3,0.2c0.1,0.1,0.1,0.2,0.1,0.3c0,0.1-0.1,0.1-0.2,0.2
			c-0.1,0-0.2,0-0.2,0C36.6,24.3,36.5,24.3,36.4,24.2L36.4,24.2z"/>
		<path class="st0" d="M12.1,8.7c0.1,0.1,0.1,0.2,0.3,0.3C12.5,9,12.6,9,12.7,9C12.9,8.9,13,8.8,13,8.6c0.1-0.1,0.1-0.3,0.2-0.4
			c0-0.2,0-0.2,0.1-0.3l0,0l0,0c0,0.2,0,0.5-0.1,0.7h0.1c0,0,0.1,0,0.1,0c0.1,0,0.1-0.1,0.1-0.3c0-0.1,0-0.2,0-0.4
			c0,0,0-0.1-0.1-0.1c0,0-0.1,0-0.1,0c-0.1,0-0.1,0.1-0.1,0.3v0.2v0.2c0-0.1,0-0.1,0-0.2c0-0.1-0.1-0.2-0.2-0.2c-0.1,0-0.2,0-0.3,0
			c-0.2,0.1-0.3,0.3-0.3,0.5c0,0,0,0,0,0L12.1,8.7z M12.6,8.3c0.1,0,0.2,0.1,0.2,0.2c0.1,0.2,0,0.3-0.2,0.4c-0.1,0-0.2,0-0.3,0
			c-0.1,0-0.1-0.1-0.2-0.1c0-0.1,0-0.2,0-0.2c0-0.1,0.1-0.1,0.2-0.1C12.4,8.2,12.5,8.2,12.6,8.3L12.6,8.3z"/>
		<path class="st0" d="M7,13.8c-0.1,0.1-0.1,0.2-0.1,0.4c0,0.1,0.1,0.3,0.2,0.3c0.1,0.1,0.3,0.1,0.4,0.1c0.1,0,0.3-0.1,0.4-0.1
			c0.1-0.1,0.2-0.1,0.3,0l0,0l0,0c-0.2,0.1-0.4,0.2-0.6,0.2c0,0,0,0.1,0,0.1c0,0,0,0.1,0,0.1c0,0,0.1,0,0.3-0.1
			c0.1-0.1,0.2-0.1,0.3-0.2c0,0,0.1-0.1,0.1-0.1c0-0.1,0-0.1-0.1-0.1c0,0-0.1,0-0.3,0H7.7H7.5c0.1,0,0.1-0.1,0.1-0.1
			c0.1-0.1,0.1-0.2,0.1-0.3c0-0.1-0.1-0.2-0.2-0.3c-0.2-0.2-0.4-0.1-0.6,0c0,0,0,0,0,0L7,13.8z M7.7,14.1c0,0.1,0,0.2,0,0.3
			c-0.1,0.1-0.3,0.1-0.4,0c-0.1-0.1-0.1-0.1-0.2-0.2C7,14,7,13.9,7.1,13.8c0.1-0.1,0.1-0.1,0.2-0.1c0.1,0,0.2,0,0.2,0.1
			C7.6,13.9,7.7,14,7.7,14.1L7.7,14.1z"/>
		<path class="st0" d="M31.7,2.6C31.9,2.7,32,2.8,32,3c0,0.2,0,0.3-0.1,0.5c-0.1,0.2-0.3,0.2-0.5,0.3c-0.2,0-0.4,0-0.6,0
			c-0.2,0-0.3,0-0.3,0c0,0,0,0,0,0l0,0c0.3,0.1,0.6,0.1,0.9,0.1c0,0,0,0.1,0,0.1c0,0,0,0.1,0,0.1c0,0.1-0.2,0.1-0.4,0
			c-0.1,0-0.3,0-0.4-0.1c-0.1,0-0.1-0.1-0.1-0.2c0-0.1,0-0.1,0-0.2c0-0.1,0.2-0.1,0.4-0.1h0.5c-0.1,0-0.2,0-0.2-0.1
			c-0.1-0.1-0.2-0.2-0.2-0.4c0-0.1,0-0.3,0.1-0.4c0.1-0.1,0.2-0.2,0.4-0.2C31.4,2.4,31.6,2.5,31.7,2.6z M31,3.2c0,0.1,0,0.2,0.2,0.3
			c0.2,0.1,0.4,0.1,0.5-0.2c0.1-0.1,0.1-0.2,0.1-0.3c0-0.1,0-0.3-0.1-0.3c-0.1-0.1-0.2-0.1-0.3,0c-0.1,0-0.2,0.1-0.2,0.2
			C31.1,2.9,31,3.1,31,3.2z"/>
		<path class="st0" d="M12.4,13.9c0,0.1,0,0.2,0.1,0.2c0.1,0.1,0.1,0.1,0.2,0.1c0.1,0,0.2,0,0.3-0.1c0.1-0.1,0.1-0.1,0.2-0.2
			c0.1-0.1,0.1-0.1,0.1-0.1l0,0l0,0c0,0.1-0.1,0.3-0.2,0.4l0,0l0,0c0,0,0.1-0.1,0.1-0.2c0-0.1,0.1-0.1,0.1-0.2c0,0,0-0.1,0-0.1
			c0,0-0.1,0-0.1,0c0,0-0.1,0-0.1,0.1l-0.1,0.1l-0.1,0.1c0,0,0-0.1,0-0.1c0-0.1,0-0.1-0.1-0.2c-0.1,0-0.1-0.1-0.2-0.1
			c-0.1,0-0.3,0.1-0.3,0.2C12.3,13.8,12.3,13.8,12.4,13.9L12.4,13.9z M12.8,13.8c0.1,0,0.1,0.1,0.1,0.1c0,0.1-0.1,0.2-0.2,0.2
			c-0.1,0-0.1,0-0.2-0.1c-0.1,0-0.1-0.1-0.1-0.1c0-0.1,0-0.1,0.1-0.1c0,0,0.1,0,0.1,0C12.7,13.8,12.8,13.8,12.8,13.8z"/>
		<path class="st0" d="M8.9,14c0,0.1,0,0.1,0,0.2c0,0.1,0.1,0.1,0.2,0.1c0.1,0,0.2,0,0.2-0.1l0.2-0.2C9.5,14,9.6,14,9.6,14l0,0l0,0
			c0,0.1-0.1,0.1-0.2,0.3l0,0l0,0c0,0,0.1,0,0.1-0.1c0-0.1,0.1-0.1,0.1-0.2c0,0,0-0.1,0-0.1c0,0,0,0-0.1,0c0,0-0.1,0-0.1,0.1L9.3,14
			l-0.1,0.1c0,0,0-0.1,0-0.1c0-0.1,0-0.1,0-0.2c0,0-0.1-0.1-0.1-0.1c-0.1,0-0.2,0-0.3,0.2c0,0,0,0,0,0L8.9,14z M9.3,14
			c0,0,0,0.1,0,0.1c0,0.1-0.1,0.1-0.2,0.1c-0.1,0-0.1,0-0.1-0.1c0,0,0-0.1,0-0.2c0,0,0-0.1,0.1-0.1c0,0,0.1,0,0.1,0
			C9.2,13.9,9.3,14,9.3,14z"/>
		<path class="st0" d="M17.7,6.1c0.1,0,0.2,0,0.3-0.1C18,5.9,18.1,5.8,18,5.7c0-0.1-0.1-0.2-0.2-0.3l-0.3-0.2
			c-0.1,0-0.2-0.1-0.2-0.1l0,0l0,0c0.2,0,0.3,0.1,0.5,0.2l0,0c0,0,0,0,0-0.1c0,0-0.1-0.1-0.2-0.1c-0.1,0-0.2,0-0.3,0
			c0,0-0.1,0-0.1,0c0,0,0,0.1,0,0.1c0,0,0.1,0.1,0.2,0.2l0.1,0.1l0.1,0.1c0,0-0.1,0-0.1,0c-0.1,0-0.2,0.1-0.2,0.1
			c0,0.1-0.1,0.2,0,0.3c0,0.2,0.2,0.3,0.3,0.3c0,0,0,0,0,0L17.7,6.1z M17.5,5.6c0-0.1,0.1-0.1,0.2-0.1c0.1,0,0.2,0.1,0.2,0.2
			c0,0.1,0,0.1,0,0.2c0,0.1-0.1,0.1-0.1,0.1c-0.1,0-0.1,0-0.2-0.1c0,0-0.1-0.1-0.1-0.2C17.5,5.8,17.5,5.7,17.5,5.6z"/>
		<path class="st0" d="M29.4,3.4L29.4,3.4L29.4,3.4c0.1,0,0.2,0.1,0.2,0.3c0,0.3,0,0,0,0.1v0.1l0,0.1l-0.1,0.1
			c-0.1,0.1-0.1,0.1-0.1,0.2c0,0,0,0.1,0,0.1c0,0,0.1,0,0.1,0c0.1,0,0.1,0,0.1-0.1V4.2V4.1l0.2-0.2L30,3.7c0,0,0,0.1,0,0.1
			c0,0.3,0.1,0.5,0.3,0.5c0,0,0.1,0,0.1,0c0.1,0,0.1,0,0.1-0.1c0,0,0-0.1,0-0.1c0,0-0.1-0.1-0.1-0.1l0,0l0,0l0,0l0,0
			c-0.1,0-0.1,0-0.1-0.1c0-0.1,0-0.2,0-0.3l0.1-0.1l0.1-0.1c0.1-0.1,0.1-0.1,0.1-0.2c0,0,0-0.1,0-0.1c0,0-0.1,0-0.1,0
			c-0.1,0-0.1,0-0.2,0.1l-0.1,0.1c-0.1,0.1-0.2,0.3-0.4,0.4c0-0.1,0-0.2,0-0.2c0-0.3-0.1-0.4-0.2-0.4c0,0-0.1,0-0.1,0
			c0,0-0.1,0.1,0,0.1C29.4,3.4,29.4,3.4,29.4,3.4z"/>
		<path class="st0" d="M21.4,0.4L21.4,0.4c0.1,0,0.1,0.1,0.1,0.3v0.1v0.1h-0.1h-0.1c-0.1,0.1-0.1,0.1-0.1,0.1c0,0,0,0,0,0.1l0,0
			c0,0,0.1,0,0.1,0l0,0l0,0l0.2-0.1l0.1-0.1v0.1c-0.1,0.2,0,0.3,0.1,0.4h0.1c0,0,0.1,0,0.1,0c0,0,0-0.1,0-0.1c0,0,0,0,0-0.1h-0.1
			c0,0-0.1-0.1,0-0.1c0-0.1,0-0.1,0-0.2h0.1h0.1c0.1,0,0.1-0.1,0.1-0.1c0,0,0,0,0-0.1l0,0c0,0-0.1,0-0.1,0l-0.1-0.1l-0.3,0.2
			l0.1-0.2c0.1-0.2,0-0.3-0.1-0.3c0,0-0.1,0-0.1,0C21.4,0.2,21.4,0.2,21.4,0.4C21.4,0.3,21.4,0.3,21.4,0.4z"/>
		<path class="st0" d="M17,1.6L17,1.6L17,1.6c0.1,0.1,0,0.3-0.2,0.4h-0.1h-0.1h-0.1h-0.1c-0.1,0-0.1,0-0.2,0c0,0-0.1,0.1-0.1,0.1
			c0,0,0,0.1,0,0.1c0,0.1,0.1,0.1,0.2,0.1h0.2l0.3,0l0.3,0.1L17,2.5c-0.3,0.2-0.4,0.4-0.3,0.6c0,0,0.1,0.1,0.1,0.1
			c0.1,0,0.1,0,0.1,0c0,0,0.1-0.1,0.1-0.1c0,0,0-0.1,0-0.1l0,0l0,0l0,0l0,0c0-0.1,0-0.1,0.1-0.3l0.3-0.2h0.2h0.1c0.1,0,0.2,0,0.3,0
			c0,0,0.1-0.1,0.1-0.1c0,0,0-0.1,0-0.1c0-0.1-0.1-0.1-0.2-0.1h-0.2c-0.2,0-0.4-0.1-0.7-0.1L17.1,2c0.3-0.2,0.4-0.4,0.3-0.5
			c0-0.1-0.1-0.1-0.2-0.1c0,0-0.1,0-0.1,0C17,1.5,17,1.5,17,1.6z"/>
		<path class="st0" d="M25.8,6.1L25.8,6.1L25.8,6.1c0,0.1-0.1,0.2-0.3,0.1h-0.2l-0.1-0.1l-0.1,0c0-0.1,0-0.1-0.1-0.1C25,6,25,6,25,6
			c0,0,0,0,0,0.1c0,0.1,0,0.1,0.1,0.1h0.1h0.1l0.2,0.2l0.2,0.2h-0.1c-0.3,0-0.4,0.1-0.5,0.2c0,0,0,0.1,0,0.1c0,0.1,0,0.1,0.1,0.1
			c0,0,0.1,0,0.1,0c0,0,0,0,0.1,0l0,0l0,0l0,0l0,0c0-0.1,0.1-0.1,0.2-0.1h0.2L25.7,7l0.1,0.1c0,0.1,0.1,0.1,0.2,0.1H26
			c0,0,0,0,0-0.1C26,7.1,26,7,25.9,7l-0.2-0.1c-0.1-0.1-0.2-0.2-0.3-0.4h0.2c0.3,0,0.4-0.1,0.4-0.2c0,0,0-0.1,0-0.1
			c0.1,0,0.1-0.1,0-0.2C26,6,25.9,6,25.8,6.1L25.8,6.1C25.8,6,25.8,6,25.8,6.1z"/>
		<path class="st0" d="M30.7,8.4L30.7,8.4L30.7,8.4c0,0.1-0.1,0.2-0.3,0.1h-0.2l-0.1-0.1l0,0c-0.1-0.1-0.1-0.1-0.2-0.1
			c0,0-0.1,0-0.1,0c0,0,0,0,0,0.1c0,0.1,0,0.1,0.1,0.1h0.1h0.1l0.2,0.2l0.2,0.2h-0.1c-0.3,0-0.4,0.1-0.5,0.2c0,0,0,0.1,0,0.1
			c0,0.1,0,0.1,0.1,0.1c0,0,0.1,0,0.1,0c0,0,0.1,0,0.1-0.1l0,0l0,0l0,0l0,0c0-0.1,0.1-0.1,0.2-0.1h0.2l0.1,0.1l0.1,0.1
			c0,0.1,0.1,0.1,0.2,0.1h0.1c0,0,0,0,0-0.1c0-0.1,0-0.1-0.1-0.1L30.7,9c-0.1-0.1-0.2-0.2-0.3-0.4h0.2c0.3,0,0.4-0.1,0.4-0.2
			c0,0,0-0.1,0-0.1c0,0-0.1-0.1-0.1-0.1C30.8,8.3,30.7,8.4,30.7,8.4z"/>
		<path class="st0" d="M21,6.7L21,6.7L21,6.7c0.1,0,0.1,0,0.2,0.1v0.1v0.1V7c0,0,0,0.1,0,0.1l0,0l0,0c0,0,0.1,0,0.1-0.1c0,0,0,0,0,0
			V6.9l0-0.1l0-0.1v0.1c0.1,0.2,0.1,0.2,0.2,0.2h0.1c0,0,0,0,0-0.1l0,0h-0.1l0,0l0,0c0,0-0.1,0-0.1-0.1l-0.1-0.1V6.6V6.5
			c0,0,0-0.1,0-0.1l0,0l0,0c0,0-0.1,0-0.1,0.1v0.1c0,0.1-0.1,0.2-0.1,0.3V6.7C21.2,6.6,21.2,6.5,21,6.7C21.1,6.6,21.1,6.6,21,6.7
			C21,6.6,21,6.6,21,6.7C21,6.6,21,6.7,21,6.7z"/>
		<path class="st0" d="M14.9,3.1L14.9,3.1L14.9,3.1c0.1,0,0.2,0,0.2,0.2v0.1v0.1v0.1v0.1c0,0.1,0,0.1,0,0.2c0,0,0,0,0,0
			c0,0,0,0,0.1,0c0,0,0.1-0.1,0.1-0.1V3.5l0.1-0.2l0.1-0.2v0.1c0.1,0.2,0.2,0.3,0.3,0.3l0.1-0.1c0,0,0-0.1,0-0.1c0,0,0,0-0.1-0.1
			c0,0-0.1,0-0.1,0l0,0l0,0l0,0l0,0c0,0-0.1,0-0.1-0.1L15.5,3V2.9V2.8c0-0.1,0-0.1,0-0.2c0,0,0,0,0,0c0,0,0,0-0.1,0
			c0,0-0.1,0.1-0.1,0.1v0.2c0,0.1-0.1,0.3-0.1,0.4l-0.1-0.1c-0.1-0.2-0.2-0.3-0.3-0.2c0,0-0.1,0-0.1,0.1c0,0,0,0.1,0,0.1
			C14.8,3,14.9,3.1,14.9,3.1z"/>
		<path class="st0" d="M34.7,10.5L34.7,10.5L34.7,10.5c0.1-0.1,0.2,0,0.3,0.1v0.1v0.1v0.1V11c0,0.1,0,0.1,0,0.2c0,0,0,0,0.1,0
			c0,0,0.1,0,0.1,0c0,0,0.1-0.1,0-0.1v-0.1c0-0.1,0-0.2,0-0.3v-0.2l0.1,0.1c0.2,0.2,0.3,0.3,0.5,0.2c0,0,0.1-0.1,0.1-0.1
			c0,0,0-0.1,0-0.1c0,0-0.1,0-0.1,0c0,0-0.1,0-0.1,0l0,0v0.1c0,0-0.1,0-0.2-0.1l-0.2-0.2v-0.1v-0.1c0-0.1,0-0.2,0-0.2c0,0,0,0-0.1,0
			c0,0,0,0-0.1,0c0,0,0,0.1,0,0.1v0.2c0,0.2,0,0.3,0,0.5L35,10.5c-0.2-0.2-0.3-0.3-0.4-0.2c0,0-0.1,0.1-0.1,0.1c0,0,0,0.1,0,0.1
			C34.6,10.5,34.7,10.5,34.7,10.5z"/>
		<path class="st0" d="M34.1,16.6L34.1,16.6L34.1,16.6c0-0.1,0.1-0.2,0.3-0.3h0.1h0.1l0.1,0.1l0.1,0.1c0.1,0,0.1,0.1,0.2,0
			c0,0,0.1,0,0.1-0.1c0,0,0-0.1,0-0.1c0,0-0.1-0.1-0.1-0.1h-0.2L34.4,16l-0.2-0.1h0.1c0.3-0.1,0.4-0.2,0.4-0.4c0,0,0-0.1-0.1-0.1
			c0,0-0.1-0.1-0.1,0c0,0-0.1,0-0.1,0.1c0,0,0,0.1,0,0.1l0,0l0,0l0,0l0,0c0,0.1,0,0.1-0.1,0.2L34,15.9l-0.1-0.1l-0.1-0.1
			c-0.1,0-0.2-0.1-0.2-0.1c0,0-0.1,0-0.1,0.1c0,0,0,0.1,0,0.1c0,0.1,0.1,0.1,0.1,0.1h0.2c0.2,0.1,0.3,0.1,0.5,0.2l-0.2,0.1
			c-0.3,0.1-0.4,0.2-0.3,0.3c0,0,0,0.1,0.1,0.1c0,0,0.1,0,0.1,0C34,16.7,34.1,16.6,34.1,16.6z"/>
		<path class="st0" d="M35.4,7.6L35.4,7.6L35.4,7.6c-0.1-0.1,0-0.2,0.2-0.3h0.1h0.1h0.1h0.1c0.1,0,0.1,0,0.2,0c0,0,0-0.1,0-0.1
			c0,0,0-0.1,0-0.1C36.1,7,36,7,36,7h-0.2h-0.3h-0.2L35.4,7c0.2-0.2,0.3-0.4,0.2-0.5c0,0-0.1-0.1-0.1-0.1c-0.1,0-0.1,0-0.1,0
			c0,0,0,0.1,0,0.1c0,0,0,0.1,0,0.1l0,0h0.1c0,0,0,0.1-0.1,0.2l-0.2,0.1H35h-0.1c-0.1,0-0.2,0-0.2,0c0,0,0,0,0,0.1c0,0,0,0.1,0,0.1
			c0,0,0.1,0.1,0.2,0.1H35c0.2,0,0.4,0,0.5,0l-0.2,0.1c-0.2,0.2-0.3,0.3-0.2,0.4c0,0,0.1,0.1,0.1,0.1c0,0,0.1,0,0.1,0
			C35.4,7.7,35.4,7.6,35.4,7.6z"/>
		<path class="st0" d="M12.1,14.8L12.1,14.8L12.1,14.8c0-0.1,0.1-0.1,0.3,0h0h0v0.1V15c0,0.1,0,0.1,0.1,0.1h0.1l0,0c0,0,0-0.1,0-0.1
			l0,0l0,0l-0.1-0.2l-0.1-0.1h0.1c0.2,0.1,0.3,0.1,0.4-0.1c0,0,0-0.1,0-0.1c0,0,0-0.1,0-0.1h-0.1c0,0,0,0-0.1,0l0,0l0,0l0,0
			c0,0-0.1,0.1-0.1,0h-0.2v-0.1v-0.1c0-0.1-0.1-0.1-0.1-0.1h-0.1l0,0c0,0,0,0.1,0,0.1l0.1,0.1c0.1,0.1,0.1,0.2,0.2,0.3l-0.1-0.1
			c-0.2-0.1-0.3,0-0.3,0.1c0,0,0,0.1,0,0.1C12,14.8,12,14.8,12.1,14.8C12,14.8,12.1,14.9,12.1,14.8z"/>
		<path class="st0" d="M8.3,14L8.3,14c0,0,0.1,0,0.1,0.1l0,0l0,0v0.1c0,0,0,0.1,0,0.1l0,0l0,0c0,0,0,0,0-0.1v-0.1c0,0,0-0.1,0-0.1
			v-0.1l0,0C8.5,14,8.6,14,8.6,14l0,0c0,0,0,0,0-0.1l0,0H8.6c0,0,0,0-0.1,0l-0.1-0.1v-0.1c0,0,0-0.1,0-0.1l0,0l0,0c0,0,0,0,0,0.1
			v0.1c0,0.1,0,0.2,0,0.2l0,0C8.3,13.9,8.3,13.9,8.3,14L8.3,14c-0.1-0.1-0.1,0-0.1,0c0,0,0,0,0,0C8.2,14,8.2,14,8.3,14z"/>
		<path class="st0" d="M31.5,10.7c0.1,0.1,0.2,0.2,0.3,0.2c0.1,0,0.2,0,0.4-0.1c0.1-0.1,0.2-0.2,0.3-0.3c0.1-0.1,0.1-0.3,0-0.4l0,0
			c-0.1,0.2-0.2,0.3-0.4,0.4c-0.1,0-0.2,0.1-0.3,0.1c-0.1,0-0.2,0-0.2-0.1c0,0,0-0.1,0-0.1c0,0,0-0.1,0.1-0.1h0.1l0.1-0.1
			c0.1-0.1,0.1-0.1,0.1-0.2s-0.1-0.1-0.2,0l-0.1,0.1l-0.1,0.1c0,0-0.1,0-0.1,0c0,0-0.1,0-0.1-0.1c-0.1-0.1,0-0.2,0.2-0.4
			c0.1,0,0.1-0.1,0.2-0.1L32,9.7c0,0,0,0,0-0.1c0,0,0-0.1,0-0.1c0,0-0.1,0-0.3,0l-0.3,0.1c-0.1,0.1-0.2,0.1-0.2,0.3
			c-0.1,0.1-0.1,0.2,0,0.3c0.1,0.1,0.2,0.2,0.3,0.1C31.4,10.4,31.4,10.6,31.5,10.7z"/>
		<path class="st0" d="M30.3,6.1C30.2,6,30.1,6,30,6c-0.1,0-0.2,0.1-0.3,0.2c-0.1,0.1-0.2,0.2-0.2,0.3c-0.1,0.1-0.1,0.3,0,0.4l0,0
			c0.1-0.2,0.2-0.4,0.3-0.5c0.1-0.1,0.2-0.1,0.2-0.1c0.1-0.1,0.2-0.1,0.2,0c0,0,0,0.1,0,0.1c0,0.1,0,0.1-0.1,0.1h-0.1L30,6.5
			c-0.1,0.1-0.1,0.2-0.1,0.2c0.1,0.1,0.1,0.1,0.2,0c0,0,0.1-0.1,0.1-0.1l0.1-0.1c0,0,0.1,0,0.1,0c0,0,0.1,0,0.1,0
			c0.1,0.1,0,0.2-0.2,0.4c-0.1,0-0.1,0.1-0.2,0.1l-0.2,0.1c0,0,0,0,0,0.1c0,0,0,0.1,0,0.1c0,0,0.1,0,0.3-0.1c0.1,0,0.2-0.1,0.3-0.2
			c0.1-0.1,0.2-0.2,0.2-0.3c0-0.1,0-0.2-0.1-0.3c-0.1-0.1-0.2-0.1-0.3-0.1C30.4,6.3,30.4,6.2,30.3,6.1z"/>
		<path class="st0" d="M36.6,17.1c0.1,0.1,0.1,0.1,0.2,0.1c0.1,0,0.2,0,0.3-0.1c0.1-0.1,0.1-0.1,0.2-0.2c0.1-0.1,0.1-0.2,0-0.3l0,0
			c0,0.1-0.1,0.3-0.3,0.4c-0.1,0-0.1,0.1-0.2,0.1C36.8,17.1,36.7,17.1,36.6,17.1c0-0.1,0-0.1,0.1-0.1c0,0,0-0.1,0.1-0.1h0.1h0.1
			c0.1-0.1,0.1-0.1,0-0.2c-0.1-0.1-0.1,0-0.1,0l-0.1,0.1l-0.1,0.1c0,0-0.1,0-0.1,0c0,0-0.1,0-0.1,0c-0.1-0.1,0-0.2,0.1-0.3l0.2-0.1
			l0.1,0c0,0,0,0,0-0.1c0,0,0,0,0-0.1c0,0-0.1,0-0.2,0l-0.2,0.1c-0.1,0.1-0.1,0.1-0.2,0.2c0,0.1,0,0.2,0,0.2
			c0.1,0.1,0.1,0.1,0.2,0.1C36.6,17,36.6,17,36.6,17.1z"/>
		<path class="st0" d="M26.2,1.4c0.1,0,0.2,0,0.2,0c0.1,0,0.1-0.1,0.2-0.2c0.1-0.1,0.1-0.2,0.1-0.3c0-0.1,0-0.1-0.1-0.2l0,0
			c0,0.1,0,0.3-0.1,0.4c0,0.1-0.1,0.1-0.1,0.1c0,0-0.1,0-0.2,0c0,0,0,0,0-0.1c0,0,0-0.1,0-0.1l0,0l0.1-0.1c0-0.1,0-0.1,0-0.1
			c-0.1,0-0.1,0-0.1,0.1c0,0,0,0.1,0,0.1c0,0,0,0,0,0.1c0,0,0,0-0.1,0c0,0-0.1,0-0.1,0c-0.1,0-0.1-0.1,0-0.3c0,0,0.1-0.1,0.1-0.1
			l0.1-0.1c0,0,0,0,0-0.1V0.6c0,0-0.1,0-0.1,0.1l-0.1,0.1c0,0.1-0.1,0.1-0.1,0.2c0,0.1,0,0.1,0.1,0.2c0.1,0,0.1,0,0.2,0
			C26.1,1.3,26.1,1.4,26.2,1.4z"/>
		<path class="st0" d="M12.7,4.5c0,0-0.1-0.1-0.2-0.1c-0.1,0-0.1,0-0.2,0.1c0,0-0.1,0.1-0.1,0.2c0,0.1,0,0.1,0,0.2l0,0
			c0-0.1,0.1-0.2,0.1-0.2c0,0,0.1-0.1,0.1-0.1C12.6,4.5,12.6,4.5,12.7,4.5C12.6,4.6,12.6,4.6,12.7,4.5c0,0.1,0,0.1,0,0.2l0,0h-0.1
			c0,0,0,0.1,0,0.1s0,0,0.1,0V4.7l0,0h0.1h0c0,0,0,0.1-0.1,0.2L12.6,5h-0.1l0,0l0,0c0,0,0.1,0,0.1,0l0.2,0c0,0,0.1-0.1,0.1-0.1
			c0,0,0-0.1,0-0.2c0,0-0.1,0-0.1,0C12.8,4.6,12.8,4.5,12.7,4.5z"/>
		<path class="st0" d="M6.9,15.6c0,0.1,0.1,0.1,0.2,0.1c0.1,0,0.2,0,0.2-0.1c0.1-0.1,0.1-0.1,0.2-0.2c0.1-0.1,0.1-0.2,0-0.2l0,0
			c-0.1,0.1-0.1,0.2-0.3,0.3c0,0-0.1,0.1-0.2,0.1C7.1,15.6,7,15.6,6.9,15.6c0-0.1,0-0.1,0-0.1c0,0,0-0.1,0-0.1h0h0.1
			c0.1,0,0.1-0.1,0-0.1c-0.1-0.1-0.1,0-0.1,0L7,15.3L7,15.3c0,0-0.1,0-0.1,0c0,0,0,0-0.1,0c0-0.1,0-0.1,0.1-0.3L7.1,15h0.1
			c0,0,0,0,0-0.1c0,0,0,0,0-0.1c0,0-0.1,0-0.2,0L6.9,15c-0.1,0-0.1,0.1-0.1,0.2c0,0.1,0,0.2,0,0.2c0,0.1,0.1,0.1,0.2,0.1
			C6.9,15.5,6.9,15.5,6.9,15.6z"/>
		<path class="st0" d="M38.1,15.5c0,0.2,0.2,0.3,0.4,0.4c0.2,0.1,0.4,0.1,0.6,0c0.2-0.1,0.4-0.2,0.5-0.3c0.2-0.1,0.2-0.3,0.2-0.5
			l0,0c-0.2,0.2-0.5,0.4-0.8,0.5c-0.1,0-0.3,0-0.4,0c-0.2,0-0.3-0.1-0.3-0.2c0-0.1,0-0.1,0-0.2c0-0.1,0.1-0.1,0.2-0.1h0.1
			c0.1,0,0.1,0,0.2,0c0.2-0.1,0.3-0.1,0.2-0.3c0-0.1-0.1-0.1-0.3-0.1c-0.1,0-0.1,0.1-0.2,0.1l-0.2,0.1c-0.1,0-0.1,0-0.2,0
			c-0.1,0-0.1-0.1-0.1-0.1c-0.1-0.2,0.1-0.3,0.5-0.4c0.1,0,0.2,0,0.4,0h0.3c0,0,0.1-0.1,0.1-0.1c0-0.1,0-0.1,0-0.2
			c0-0.1-0.1-0.1-0.4-0.1c-0.2,0-0.3,0-0.5,0.1c-0.2,0-0.3,0.1-0.5,0.3c-0.1,0.1-0.2,0.3-0.1,0.5c0,0.2,0.2,0.3,0.4,0.3
			C38.1,15.2,38,15.4,38.1,15.5z"/>
		<path class="st0" d="M38.5,19.7c0,0.2,0.2,0.3,0.3,0.3c0.2,0,0.3,0,0.5,0c0.2,0,0.3-0.1,0.4-0.3c0.1-0.1,0.2-0.3,0.2-0.4l0,0
			c-0.2,0.2-0.4,0.3-0.7,0.4c-0.1,0-0.2,0-0.3,0c-0.1,0-0.2-0.1-0.3-0.2c0-0.1,0-0.1,0-0.2c0-0.1,0.1-0.1,0.2-0.1h0.1h0.2
			c0.2,0,0.2-0.1,0.2-0.2S39.2,19,39.1,19l-0.2,0.1l-0.1,0.1c-0.1,0-0.1,0-0.2,0c0,0-0.1-0.1-0.1-0.1c0-0.2,0.1-0.3,0.4-0.4
			c0.1,0,0.2,0,0.3,0h0.2c0,0,0,0,0.1-0.1c0,0,0-0.1,0-0.1c0-0.1-0.1-0.1-0.3-0.1c-0.1,0-0.3,0-0.4,0.1c-0.1,0-0.3,0.1-0.4,0.2
			c-0.1,0.1-0.1,0.3-0.1,0.4c0,0.1,0.2,0.2,0.3,0.3C38.5,19.4,38.5,19.6,38.5,19.7z"/>
		<path class="st0" d="M17.2,4c0,0.1,0.1,0.1,0.1,0.2c0.1,0,0.1,0,0.2,0c0.1,0,0.1,0,0.2-0.1c0.1,0,0.1-0.1,0.1-0.2l0,0
			C17.7,4,17.6,4,17.5,4c-0.1,0-0.1,0-0.2,0C17.3,4,17.2,4,17.2,4c0.1-0.1,0.1-0.1,0.1-0.1c0,0,0.1,0,0.1,0h0.1c0.1,0,0.1,0,0.1-0.1
			c0-0.1,0,0-0.1,0h-0.1h-0.1c0,0,0,0-0.1,0c0,0,0,0,0-0.1c0-0.1,0.1-0.1,0.2-0.1h0.3l0,0c0,0,0,0,0-0.1c0,0,0,0-0.1-0.1h-0.2
			c-0.1,0-0.1,0-0.2,0c-0.1,0-0.1,0.1-0.1,0.2c0,0.1,0.1,0.1,0.1,0.1C17.2,3.9,17.2,3.9,17.2,4z"/>
		<path class="st0" d="M11.2,9.2c0.2,0,0.3,0,0.5-0.2c0.1-0.1,0.2-0.3,0.2-0.5c0-0.2,0-0.4-0.1-0.5c-0.1-0.2-0.2-0.3-0.4-0.3l0,0
			c0.1,0.2,0.2,0.5,0.1,0.8c0,0.1,0,0.2-0.1,0.3C11.3,8.9,11.2,9,11.1,9c-0.1,0-0.1,0-0.1-0.1c0-0.1-0.1-0.1,0-0.2V8.6
			c0-0.1,0-0.1,0-0.2c0-0.2,0-0.2-0.1-0.3c-0.1,0-0.1,0-0.1,0.2c0,0.1,0,0.1,0,0.2c0,0.1,0,0.1,0,0.2c0,0.1,0,0.1-0.1,0.1
			c0,0-0.1,0.1-0.1,0.1c-0.2,0-0.2-0.2-0.2-0.5c0-0.1,0-0.2,0.1-0.3c0-0.1,0.1-0.2,0.1-0.2c0,0,0-0.1-0.1-0.1c0,0-0.1,0-0.1-0.1
			c-0.1,0-0.1,0.1-0.2,0.3C10,8,10,8.2,10,8.3c0,0.1,0,0.3,0.1,0.4C10.1,8.9,10.2,9,10.4,9c0.2,0,0.3-0.1,0.4-0.2
			C10.8,9,11,9.2,11.2,9.2z"/>
		<path class="st0" d="M34.4,6.4c0.1,0.1,0.3,0.1,0.5,0C35,6.3,35.1,6.2,35.2,6c0.1-0.2,0.1-0.3,0.1-0.5c0-0.2-0.1-0.3-0.2-0.4l0,0
			c0,0.3,0,0.5-0.1,0.8c0,0.1-0.1,0.2-0.2,0.3c-0.1,0.1-0.2,0.1-0.3,0.1c-0.1,0-0.1-0.1-0.1-0.1c0-0.1,0-0.1,0-0.2l0.1-0.1
			c0,0,0.1-0.1,0.1-0.2c0.1-0.1,0.1-0.2,0-0.3s-0.1,0-0.2,0.1c0,0.1,0,0.1,0,0.2c0,0.1,0,0.1,0,0.2c0,0.1-0.1,0.1-0.1,0.1
			c-0.1,0-0.1,0-0.2,0c-0.1-0.1-0.1-0.3,0-0.6c0.1-0.1,0.1-0.2,0.2-0.3c0-0.1,0-0.2,0-0.2c0,0,0-0.1,0-0.1c0,0-0.1-0.1-0.1-0.1
			c-0.1,0-0.1,0.1-0.3,0.2c-0.1,0.1-0.1,0.2-0.2,0.3c-0.1,0.1-0.1,0.3-0.1,0.4c0,0.2,0.1,0.3,0.3,0.3c0.1,0.1,0.2,0,0.4,0
			C34.1,6.2,34.2,6.3,34.4,6.4z"/>
		<path class="st0" d="M36.9,23.4c0.1,0,0.2-0.1,0.2-0.2c0-0.1,0.1-0.2,0-0.3c0-0.1,0-0.2-0.1-0.3c0-0.1-0.1-0.2-0.3-0.2l0,0
			c0.1,0.1,0.2,0.3,0.2,0.5c0,0.1,0,0.2,0,0.2C37,23.2,37,23.3,36.9,23.4c-0.1-0.1-0.1-0.1-0.1-0.1c0,0,0-0.1,0-0.1v-0.1
			c0,0,0-0.1,0-0.1c0-0.1,0-0.2-0.1-0.1s-0.1,0.1-0.1,0.1c0,0,0,0.1,0,0.1c0,0,0,0.1,0,0.1c0,0,0,0.1,0,0.1c0,0-0.1,0-0.1,0
			c-0.1,0-0.2-0.1-0.2-0.3c0-0.1,0-0.1,0-0.2c0,0,0-0.1,0-0.1c0,0,0,0-0.1-0.1h-0.1c0,0-0.1,0.1-0.1,0.2c0,0.1,0,0.2,0,0.3
			c0,0.1,0,0.2,0.1,0.3c0.1,0.1,0.2,0.1,0.3,0.1c0.1,0,0.2-0.1,0.2-0.2C36.7,23.4,36.8,23.4,36.9,23.4z"/>
		<path class="st0" d="M13.2,15.9c0.1,0.1,0.2,0.1,0.3,0c0.1-0.1,0.1-0.1,0.2-0.2c0-0.1,0-0.2,0-0.3c0-0.1-0.1-0.2-0.2-0.2l0,0
			c0,0.1,0,0.3,0,0.4c0,0.1-0.1,0.1-0.1,0.2C13.3,15.9,13.2,15.9,13.2,15.9c0-0.1-0.1-0.1-0.1-0.1c0,0,0-0.1,0-0.1l0,0
			c0-0.1,0.1-0.1,0.1-0.2c0-0.1,0-0.1,0-0.2c0,0-0.1,0-0.1,0.1c0,0,0,0.1,0,0.1c0,0,0,0.1,0,0.1c0,0,0,0.1-0.1,0.1c0,0-0.1,0-0.1,0
			c-0.1,0-0.1-0.1,0-0.3c0-0.1,0.1-0.1,0.1-0.2l0.1-0.1c0,0,0,0,0-0.1H13c0,0-0.1,0-0.1,0.1c0,0.1-0.1,0.1-0.1,0.2
			c0,0.1,0,0.2,0,0.3c0,0.1,0.1,0.2,0.2,0.2c0.1,0,0.2,0,0.2-0.1C13.1,15.8,13.1,15.9,13.2,15.9z"/>
		<path class="st0" d="M9.3,15.6c0,0.1,0,0.2,0.1,0.2c0.1,0.1,0.1,0.1,0.2,0.1c0.1,0,0.2,0,0.3,0c0.1,0,0.2-0.1,0.2-0.2l0,0
			c-0.1,0-0.3,0-0.4,0c-0.1,0-0.1,0-0.2-0.1C9.4,15.7,9.4,15.6,9.3,15.6c0.1-0.1,0.1-0.1,0.1-0.1c0,0,0.1,0,0.1,0l0,0h0.1
			c0.1,0,0.1,0,0.1-0.1c0-0.1,0-0.1-0.1-0.1H9.5c0,0,0,0-0.1,0c0,0,0,0,0-0.1c0-0.1,0.1-0.1,0.3-0.1l0.1,0.1h0.1c0,0,0,0,0,0
			c0,0,0,0,0-0.1c0,0,0-0.1-0.1-0.1l-0.2-0.1c-0.1,0-0.1,0-0.2,0c-0.1,0-0.1,0.1-0.1,0.2c0,0.1,0,0.1,0.1,0.2
			C9.3,15.5,9.3,15.5,9.3,15.6z"/>
		<path class="st0" d="M24.7,6.3l-0.3,0.1l-0.2,0.1l0.1-0.1V6.4l0.1-0.1l0-0.1c0-0.1,0-0.1,0-0.2h-0.1l0,0l0,0c0,0,0,0,0,0.1l0,0
			c0,0,0,0,0,0.1v0.1L24,6.4c-0.1,0.1-0.1,0.2-0.1,0.3c0,0.1,0,0.2,0,0.3h0c0,0,0,0,0-0.1c0,0,0,0,0-0.1c0,0-0.1-0.1-0.1-0.1
			c0,0,0-0.1,0-0.2C24.1,6.5,24.4,6.4,24.7,6.3L24.7,6.3z"/>
		<path class="st0" d="M29.4,8.9l-0.2-0.3l-0.1-0.2h0.1l0.1,0.1l0.1,0.1h0.1c0.1,0,0.2,0,0.2,0l0,0l0,0l0,0l0,0h-0.2h-0.1l-0.3-0.2
			c-0.1,0-0.2-0.1-0.3-0.1c-0.1,0-0.2,0-0.3,0.1v0.1h0.1h0c0,0,0.1-0.1,0.1-0.1c0,0,0.1,0,0.2,0C29.1,8.5,29.2,8.7,29.4,8.9
			L29.4,8.9z"/>
		<path class="st0" d="M23.4,3.5l-0.2,0.1L23,3.7V3.6V3.6l0.2-0.1V3.4c0-0.1,0-0.1,0-0.1h-0.1l0,0l0,0l0,0l0,0l0,0L23,3.4
			c0,0.1-0.1,0.1-0.1,0.2c0,0.1,0,0.1,0,0.2l0,0l0,0l0,0l0,0l-0.1-0.1c0,0,0-0.1,0-0.1C23,3.5,23.2,3.5,23.4,3.5L23.4,3.5z"/>
		<path class="st0" d="M14.5,10.9l-0.3,0.3L14,11.5v-0.1v-0.1c0-0.1,0-0.1,0-0.2c0,0,0-0.1,0-0.1c0-0.1,0-0.2-0.1-0.2l0,0l0,0l0,0
			l0,0c0,0,0,0,0,0.1v0.1v0.1V11c0,0,0,0.1,0,0.1v0.4c0,0.1,0,0.3,0,0.4c0,0.1,0.1,0.2,0.2,0.3h0.1h0.1c0,0,0-0.1,0-0.1
			c0,0,0,0-0.1,0c-0.1,0-0.1,0-0.2-0.1c0-0.1,0-0.1,0-0.2c0.2-0.3,0.4-0.5,0.7-0.8L14.5,10.9z"/>
		<path class="st0" d="M17.4,2.7c0,0.1,0,0.2,0,0.3s0,0.1,0,0.2l0,0l0-0.1l-0.1-0.1h-0.1c-0.1,0-0.1,0-0.1,0l0,0l0,0l0,0h0.1l0,0
			l0,0l0.1,0.1c0.1,0.1,0.1,0.1,0.2,0.1c0.1,0,0.1,0,0.2,0l0,0l0,0l0,0l0,0l-0.1,0c0,0-0.1,0-0.1,0C17.4,3,17.4,2.8,17.4,2.7
			L17.4,2.7z"/>
		<path class="st0" d="M13.2,6.5l-0.2,0.3l-0.1,0.3V7V6.9V6.8V6.6c0-0.1-0.1-0.1-0.1-0.1l0,0l0,0l0,0l0,0l0,0l0,0l0,0v0.1v0.1
			l0.1,0.3c0,0.1,0.1,0.2,0.1,0.3c0,0.1,0.1,0.2,0.2,0.2h0.1l0,0c0,0,0,0,0-0.1h-0.1h-0.2C13,7.3,13,7.3,13,7.2
			c0.1-0.3,0.2-0.5,0.4-0.8L13.2,6.5z"/>
		<path class="st0" d="M11.8,15.1l-0.2,0.3l-0.1,0.3c0,0,0-0.1,0-0.1s0-0.1,0-0.1s0-0.1,0-0.2c0,0,0-0.1,0-0.1c0-0.1,0-0.2-0.1-0.2
			l0,0l0,0l0,0l0,0c0,0,0,0,0,0.1v0.1l0,0v0.1v0.1v0.3c0,0.1,0,0.3,0.1,0.4c0,0.1,0.1,0.2,0.2,0.2h0.1c0,0,0,0,0,0c0,0,0,0,0-0.1
			h-0.1h-0.2c-0.1,0-0.1-0.1-0.1-0.2c0.1-0.3,0.3-0.5,0.5-0.8L11.8,15.1z"/>
		<path class="st0" d="M11.3,5c0.1,0.3,0.1,0.5,0.2,0.7c0,0.2,0.1,0.4,0.1,0.5L11.7,6l0.1-0.2l0.1-0.3C12,5.5,12,5.4,12,5.3
			c0.1-0.2,0.2-0.2,0.3-0.2h0v0.1c0,0,0,0,0,0.1c0,0,0,0,0,0.1c0,0,0,0-0.1,0.1l-0.1,0.1l0,0.1l-0.1,0.1L12,5.7l-0.3,0.6
			c-0.1,0.2-0.2,0.4-0.4,0.6c-0.1,0.2-0.3,0.2-0.5,0.2h-0.1c0,0-0.1-0.1-0.1-0.1c0,0,0-0.1,0.1-0.1c0,0,0.1,0,0.1,0
			c0.1,0,0.2,0,0.3,0c0.1,0,0.2-0.1,0.2-0.3C11.4,6,11.2,5.5,11.1,5H11.3z"/>
		<path class="st0" d="M32.5,3.7h-0.3h-0.3L32,3.6l0.1-0.1l0.1-0.1l0.1-0.1c0.1-0.1,0.1-0.1,0-0.2l0,0h-0.1l0,0v0.1v0.1v0L32,3.6
			c-0.1,0.1-0.2,0.2-0.2,0.2c0,0.1,0,0.2,0,0.2l0,0l0,0c0,0,0,0,0-0.1c0,0-0.1,0-0.1,0c0-0.1,0-0.1,0.1-0.1
			C32.1,3.8,32.3,3.8,32.5,3.7L32.5,3.7z"/>
		<path class="st0" d="M37.3,14.4l-0.6-0.6c-0.2-0.2-0.3-0.3-0.4-0.4l0,0.2l0.1,0.2c0,0.1,0,0.2,0,0.3c0,0.1,0,0.2,0,0.3
			c0,0.2-0.1,0.3-0.2,0.4h-0.1h-0.1H36v-0.1c0,0,0-0.1,0-0.1l0.1-0.1v-0.1c0-0.1,0-0.1,0-0.2c0-0.1,0-0.1,0-0.2L36,13.5
			c0-0.2,0-0.5,0-0.8c0-0.2,0.1-0.4,0.3-0.5h0.1c0,0,0.1,0,0.1,0.1c0,0,0,0.1,0,0.1c0,0-0.1,0.1-0.1,0.1c-0.1,0-0.2,0.1-0.3,0.2
			c0,0.1,0,0.2,0,0.3c0.4,0.5,0.9,0.9,1.4,1.3L37.3,14.4z"/>
		<path class="st0" d="M38,13.7c-0.2,0-0.5-0.1-0.6-0.3c0,0-0.1-0.1-0.1-0.1c0,0-0.1,0-0.1,0c0,0,0,0.1,0,0.1c0,0.1,0.1,0.2,0.4,0.3
			C37.7,13.7,37.8,13.8,38,13.7c0.2,0.1,0.4,0.1,0.6,0c0.2-0.1,0.3-0.3,0.3-0.5c0-0.2,0-0.3-0.1-0.4c-0.1-0.1-0.2-0.2-0.4-0.2
			c-0.2,0-0.3,0-0.5,0.1c-0.1,0.1-0.2,0.3-0.2,0.4C37.7,13.4,37.8,13.6,38,13.7z M38.1,13.6c-0.1,0-0.2,0-0.3-0.1
			c-0.1-0.1-0.1-0.2-0.1-0.3c0-0.1,0.1-0.2,0.3-0.3c0.1-0.1,0.3-0.1,0.4-0.1c0.1,0,0.2,0,0.3,0.1c0.1,0,0.1,0.1,0.1,0.3
			c0,0.1-0.1,0.3-0.3,0.3C38.4,13.6,38.3,13.6,38.1,13.6L38.1,13.6z"/>
		<path class="st0" d="M37,24.9c0-0.1,0.1-0.1,0.2-0.2l0.2-0.1h0.1c0,0,0,0,0,0l0,0c-0.1,0-0.1,0-0.2,0.1C37.1,24.8,37,24.8,37,24.9
			c-0.1,0.2-0.1,0.3-0.1,0.4c0,0.1,0,0.2,0.1,0.3c0.1,0,0.1,0.1,0.2,0c0.1,0,0.2-0.1,0.2-0.1c0.1-0.1,0.1-0.2,0.1-0.3
			c0-0.1-0.1-0.2-0.2-0.2C37.3,24.8,37.1,24.8,37,24.9z M37,25c0,0,0.1-0.1,0.1-0.1c0,0,0.1,0,0.2,0c0.1,0,0.1,0.1,0.1,0.2
			c0,0.1,0,0.1-0.1,0.2c0,0-0.1,0.1-0.1,0.1c0,0-0.1,0-0.2,0c-0.1,0-0.1-0.1-0.1-0.2C37,25.1,37,25,37,25L37,25z"/>
		<path class="st0" d="M34.7,23.7c-0.2-0.1-0.4-0.2-0.6-0.4c-0.1-0.1-0.1-0.1-0.1-0.1c0,0-0.1,0-0.1,0c0,0,0,0-0.1,0.1
			c0,0.1,0.1,0.2,0.3,0.4C34.3,23.7,34.5,23.7,34.7,23.7c0.2,0.1,0.4,0.1,0.6,0.1c0.2,0,0.4-0.2,0.4-0.4c0.1-0.1,0.1-0.3,0-0.4
			c-0.1-0.1-0.2-0.2-0.3-0.3c-0.2-0.1-0.3-0.1-0.5,0c-0.2,0.1-0.3,0.2-0.3,0.4C34.4,23.3,34.5,23.6,34.7,23.7z M34.9,23.6
			c-0.1,0-0.2-0.1-0.3-0.2c-0.1-0.1-0.1-0.2,0-0.3c0.1-0.1,0.2-0.2,0.3-0.2c0.1,0,0.3,0,0.4,0c0.1,0,0.2,0.1,0.3,0.1
			c0.1,0.1,0.1,0.2,0.1,0.3c-0.1,0.1-0.2,0.2-0.3,0.2C35.2,23.7,35,23.7,34.9,23.6L34.9,23.6z"/>
		<path class="st0" d="M37.8,20.3c0.1-0.2,0.2-0.4,0.4-0.6c0.1-0.1,0.1-0.1,0.1-0.1c0,0,0-0.1,0-0.1c0,0-0.1,0-0.1,0
			c-0.1,0-0.2,0.1-0.3,0.3C37.9,20,37.8,20.1,37.8,20.3c-0.1,0.2-0.1,0.4-0.1,0.6c0,0.2,0.2,0.4,0.4,0.4c0.1,0,0.3,0,0.4-0.1
			c0.1-0.1,0.2-0.2,0.3-0.4c0.1-0.2,0.1-0.3,0-0.5c-0.1-0.2-0.2-0.3-0.4-0.3C38.3,20,38,20.1,37.8,20.3z M38,20.5
			c0-0.1,0.1-0.2,0.1-0.3c0.1-0.1,0.2-0.1,0.3-0.1c0.1,0,0.2,0.2,0.2,0.3c0,0.1,0,0.3,0,0.4c0,0.1-0.1,0.2-0.1,0.3
			c-0.1,0.1-0.2,0.1-0.3,0.1c-0.1,0-0.2-0.2-0.3-0.3C37.9,20.8,37.9,20.6,38,20.5L38,20.5z"/>
		<path class="st0" d="M32.9,5.9C33,5.8,33,5.8,33,5.7c0-0.1-0.1-0.1-0.1-0.2c0,0-0.1-0.1-0.2-0.1c-0.1,0-0.1,0-0.2,0.1
			c0,0.1,0,0.2,0,0.2c0,0.1,0.1,0.1,0.2,0.2l0.2,0.1C33,6.2,33,6.2,33,6.1l0,0l0,0h-0.2c-0.1,0-0.1-0.1-0.2-0.1
			C32.8,6,32.9,6,32.9,5.9z M32.6,5.7c0-0.1,0-0.1,0-0.2c0,0,0.1,0,0.1,0c0,0,0.1,0,0.1,0.1c0,0,0.1,0.1,0.1,0.1c0,0,0,0.1,0,0.2
			c0,0-0.1,0-0.1,0c0,0-0.1,0-0.1-0.1C32.6,5.8,32.6,5.8,32.6,5.7L32.6,5.7z"/>
		<path class="st0" d="M31.7,8.9c0.1-0.1,0.1-0.2,0.1-0.2c0-0.1-0.1-0.2-0.1-0.2c-0.1-0.1-0.1-0.1-0.2-0.1c-0.1,0-0.1,0-0.2,0.1
			c-0.1,0.1-0.1,0.2,0,0.3c0,0.1,0.1,0.2,0.2,0.2l0.2,0.1c0.1,0.1,0.2,0.1,0.2,0l0,0l0,0h-0.1h-0.2c-0.1,0-0.1-0.1-0.2-0.1
			C31.5,9.1,31.6,9,31.7,8.9z M31.2,8.7c0-0.1,0-0.1,0-0.2c0,0,0.1,0,0.1,0c0.1,0,0.1,0,0.1,0.1c0.1,0,0.1,0.1,0.1,0.2
			c0,0.1,0,0.1,0,0.2c0,0-0.1,0.1-0.1,0.1c-0.1,0-0.1,0-0.1-0.1C31.3,8.9,31.2,8.8,31.2,8.7z"/>
		<path class="st0" d="M22.9,0.4c-0.1,0-0.2,0.1-0.3,0.2c0,0.1,0,0.2,0,0.3c0,0.1,0.1,0.2,0.2,0.2c0.1,0,0.2,0,0.3,0
			c0.1,0,0.2-0.1,0.3-0.3c0-0.1,0-0.3,0-0.4c0-0.1-0.1-0.2-0.1-0.3C23.2,0.1,23.1,0,23,0h-0.1c0,0,0,0,0,0.1L23,0.2
			c0.1,0,0.1,0.1,0.1,0.2c0.1,0.1,0.1,0.2,0.1,0.3C23.2,0.4,23.1,0.4,22.9,0.4z M23.2,1c0,0.1-0.1,0.2-0.2,0.2c-0.1,0-0.1,0-0.2,0
			c0-0.1-0.1-0.1-0.1-0.2c0-0.1,0-0.2,0-0.3c0-0.1,0.1-0.2,0.2-0.2c0.1,0,0.1,0,0.2,0c0.1,0,0.1,0.1,0.1,0.2
			C23.3,0.8,23.3,0.9,23.2,1L23.2,1z"/>
		<path class="st0" d="M17.9,1.3c-0.1,0-0.2,0.1-0.3,0.2c0,0.1,0,0.2,0,0.3c0,0.1,0.1,0.2,0.2,0.2c0.1,0,0.2,0,0.3,0
			c0.1,0,0.2-0.1,0.3-0.3c0-0.1,0-0.3,0-0.4c-0.1-0.1-0.1-0.2-0.2-0.3c-0.1-0.2-0.2-0.2-0.2-0.2h-0.1c0,0,0,0,0,0.1l0.1,0.1
			c0.1,0.1,0.2,0.2,0.3,0.4C18.1,1.3,18,1.3,17.9,1.3z M18.2,1.9C18.2,2,18.1,2,18,2.1c-0.1,0-0.1,0-0.2-0.1c0-0.1-0.1-0.1-0.1-0.2
			c0-0.1,0-0.2,0-0.3c0-0.1,0.1-0.2,0.1-0.2c0.1,0,0.1,0,0.2,0c0.1,0,0.1,0.1,0.1,0.2C18.2,1.6,18.2,1.8,18.2,1.9L18.2,1.9z"/>
		<path class="st0" d="M15.9,2.6c-0.1,0.1-0.1,0.2-0.1,0.3c0,0.1,0,0.2,0.1,0.3c0.1,0.1,0.1,0.1,0.2,0.1c0.1,0,0.2,0,0.2-0.1
			c0.1-0.1,0.1-0.2,0.1-0.3c0-0.1-0.1-0.2-0.2-0.3c-0.1-0.1-0.1-0.1-0.2-0.2c-0.1-0.1-0.2-0.1-0.2-0.1c0,0,0,0,0,0c0,0,0,0,0,0h0.1
			H16c0.1,0,0.1,0.1,0.2,0.1C16.1,2.4,15.9,2.5,15.9,2.6z M16.3,2.9c0,0.1,0,0.2,0,0.2c0,0-0.1,0-0.2,0C16.1,3.1,16.1,3,16,3
			c-0.1-0.1-0.1-0.1-0.1-0.2c0-0.1,0-0.1,0-0.2c0,0,0.1,0,0.2,0c0.1,0,0.1,0,0.1,0.1C16.3,2.7,16.3,2.8,16.3,2.9z"/>
		<path class="st0" d="M12.6,6.1c0.1,0,0.2,0,0.3,0C13,6.1,13,6,13.1,5.9c0-0.1,0-0.2,0-0.2c0-0.1-0.1-0.1-0.2-0.2
			c-0.1,0-0.2,0-0.3,0.1c-0.1,0.1-0.1,0.2-0.2,0.3c0,0.1-0.1,0.2-0.1,0.3c0,0.1,0,0.2,0,0.2h0l0,0c0,0,0-0.1,0-0.1
			c0-0.1,0-0.3,0-0.4C12.4,6,12.5,6.1,12.6,6.1z M12.6,5.6c0.1-0.1,0.1-0.1,0.2-0.1c0.1,0,0.1,0.1,0.1,0.1c0,0.1,0,0.1,0,0.2
			c0,0.1-0.1,0.1-0.1,0.2c0,0.1-0.1,0.1-0.2,0.1c-0.1,0-0.1-0.1-0.1-0.1c0-0.1,0-0.1,0-0.2C12.6,5.7,12.6,5.6,12.6,5.6L12.6,5.6z"/>
		<path class="st0" d="M33.4,17.1c-0.1,0.1-0.2,0.2-0.2,0.3c0,0.1,0,0.2,0.1,0.3c0.1,0.1,0.2,0.1,0.3,0.2c0.1,0,0.2,0,0.3-0.1
			c0.1-0.1,0.2-0.2,0.2-0.4c0-0.2-0.1-0.3-0.2-0.5c-0.1-0.1-0.2-0.2-0.3-0.3c-0.1-0.1-0.2-0.2-0.3-0.1c0,0,0,0,0,0.1c0,0,0,0,0,0.1
			h0.1c0.2,0,0.3,0.1,0.4,0.3C33.7,16.9,33.5,17,33.4,17.1z M33.9,17.5c0,0.1,0,0.2-0.1,0.3c-0.1,0-0.1,0-0.2,0
			c-0.1,0-0.1-0.1-0.2-0.1c-0.1-0.1-0.1-0.2-0.1-0.3c0-0.1,0-0.2,0.1-0.3c0.1,0,0.1,0,0.2,0c0.1,0,0.1,0.1,0.2,0.1
			C33.8,17.3,33.9,17.4,33.9,17.5z"/>
		<path class="st0" d="M34.9,8.2c-0.1,0.1-0.2,0.2-0.2,0.3c0,0.1,0,0.2,0.1,0.3C34.9,8.9,35,9,35.1,9c0.1,0,0.2,0,0.3-0.1
			c0.1-0.1,0.2-0.2,0.2-0.4c0-0.1-0.1-0.3-0.2-0.4c-0.1-0.1-0.2-0.2-0.3-0.3c-0.1-0.1-0.2-0.2-0.3-0.1c0,0,0,0,0,0.1c0,0,0,0,0,0.1
			h0.1c0.2,0,0.3,0.1,0.4,0.3C35.2,8,35,8.1,34.9,8.2z M35.4,8.6c0,0.1,0,0.2-0.1,0.3c-0.1,0-0.1,0-0.2,0c-0.1,0-0.1-0.1-0.2-0.1
			c-0.1-0.1-0.1-0.2-0.1-0.3c0-0.1,0-0.2,0.1-0.3c0.1,0,0.1,0,0.2,0c0.1,0,0.1,0.1,0.2,0.1C35.4,8.4,35.4,8.5,35.4,8.6z"/>
		<path class="st0" d="M23.9,4.4c-0.1-0.1-0.3-0.2-0.4-0.2c-0.2,0-0.3,0.1-0.4,0.2c-0.1,0.1-0.2,0.2-0.2,0.4c0,0.2,0.1,0.3,0.2,0.4
			c0.1,0.1,0.3,0.2,0.5,0.2C23.7,5.3,23.9,5.2,24,5c0.1-0.1,0.2-0.3,0.3-0.4c0.2-0.2,0.2-0.4,0.1-0.4c0,0-0.1,0-0.1,0
			c0,0-0.1,0-0.1,0c0,0.1,0,0.1,0,0.2c0,0.2-0.1,0.5-0.3,0.6C24.1,4.8,24,4.5,23.9,4.4z M23.4,5.2c-0.1,0.1-0.3,0-0.4-0.1
			c-0.1-0.1-0.1-0.2,0-0.3c0-0.1,0.1-0.2,0.2-0.3c0.1-0.1,0.2-0.2,0.3-0.2c0.1-0.1,0.3,0,0.4,0.1C23.9,4.5,24,4.6,24,4.7
			c0,0.1-0.1,0.2-0.2,0.3C23.7,5.1,23.6,5.1,23.4,5.2z"/>
		<path class="st0" d="M14.6,3.4c-0.1-0.1-0.1-0.2-0.3-0.2c-0.1,0-0.2,0-0.3,0c-0.1,0-0.2,0.1-0.2,0.2c0,0.1,0,0.2,0,0.3
			C13.9,3.9,14,4,14.2,4c0.1,0,0.3,0,0.4-0.1c0.1-0.1,0.2-0.1,0.3-0.2C15,3.6,15.1,3.5,15,3.5l0,0c0,0,0,0-0.1,0c0,0,0,0.1-0.1,0.1
			c-0.1,0.2-0.2,0.3-0.3,0.3C14.7,3.8,14.7,3.6,14.6,3.4z M14.2,3.8c-0.1,0-0.2,0-0.2-0.1c0-0.1,0-0.1,0-0.2c0-0.1,0.1-0.1,0.2-0.1
			c0.1,0,0.2-0.1,0.3-0.1c0.1,0,0.2,0,0.2,0.1c0,0.1,0,0.1,0,0.2c0,0.1-0.1,0.1-0.1,0.1C14.4,3.8,14.3,3.8,14.2,3.8z"/>
		<path class="st0" d="M17.8,6.4c-0.1,0-0.2,0-0.3,0.1c-0.1,0.1-0.1,0.2-0.2,0.3c0,0.1,0,0.2,0,0.3c0.1,0.1,0.1,0.1,0.2,0.2
			c0.1,0,0.2,0,0.3-0.1C18,6.9,18,6.8,18,6.7c0.1-0.1,0.1-0.2,0.1-0.3c0-0.2,0-0.3-0.1-0.3H18l0,0c0,0,0,0.1,0,0.1
			c0.1,0.1,0.1,0.3,0,0.4C18,6.5,17.9,6.4,17.8,6.4z M17.8,7c-0.1,0.1-0.1,0.1-0.2,0.1c0,0-0.1,0-0.1-0.1c0-0.1,0-0.1,0-0.2
			c0-0.1,0.1-0.2,0.1-0.2c0-0.1,0.1-0.1,0.2-0.1c0.1,0,0.1,0.1,0.1,0.1c0,0.1,0,0.1,0,0.2C17.9,6.9,17.8,6.9,17.8,7L17.8,7z"/>
		<path class="st0" d="M8.9,15.4c0.1,0,0.3-0.1,0.3-0.3c0.1-0.1,0.1-0.3,0-0.4c0-0.1-0.1-0.2-0.2-0.3c-0.1-0.1-0.3-0.1-0.4-0.1
			c-0.2,0-0.3,0.2-0.4,0.3c0,0.2,0,0.3,0,0.5c0,0.2,0.1,0.3,0.1,0.4C8.5,15.9,8.6,16,8.7,16c0,0,0.1,0,0.1,0c0,0,0-0.1,0-0.1
			c0,0,0-0.1-0.1-0.1c-0.2-0.1-0.3-0.3-0.3-0.5C8.5,15.4,8.7,15.5,8.9,15.4z M8.6,14.7c0-0.1,0.1-0.2,0.2-0.3c0.1,0,0.2,0,0.2,0.1
			c0.1,0.1,0.1,0.2,0.1,0.2c0,0.1,0,0.2,0,0.4c0,0.1-0.1,0.2-0.2,0.3c-0.1,0-0.2,0-0.2-0.1c-0.1-0.1-0.1-0.1-0.1-0.2
			C8.5,14.9,8.5,14.8,8.6,14.7z"/>
		<path class="st0" d="M9.1,8.6c0,0.1,0,0.2,0,0.3C9.2,9,9.3,9.1,9.4,9.1c0.1,0,0.2,0,0.3,0c0.1,0,0.2-0.1,0.2-0.2
			c0.1-0.1,0-0.3,0-0.4C9.7,8.4,9.6,8.4,9.5,8.3c-0.1,0-0.2-0.1-0.3-0.1c-0.2,0-0.3,0-0.3,0.1c0,0,0,0,0,0.1l0,0H9h0.2
			c0.1,0,0.2,0,0.3,0C9.3,8.4,9.1,8.5,9.1,8.6z M9.7,8.7c0.1,0.1,0.1,0.2,0.1,0.3C9.8,9,9.7,9,9.6,9C9.6,9,9.5,9,9.4,9
			C9.4,9,9.3,8.9,9.2,8.9C9.2,8.8,9.1,8.7,9.2,8.6c0-0.1,0.1-0.1,0.1-0.1c0.1,0,0.1,0,0.2,0C9.6,8.5,9.7,8.6,9.7,8.7z"/>
		<path class="st0" d="M37.4,15.8c0.1-0.1,0.2-0.2,0.2-0.4c0-0.1,0-0.3-0.1-0.4c0-0.1-0.1-0.1-0.2-0.1c-0.1,0-0.2,0-0.2,0l0.3-0.2
			c0,0,0-0.1,0-0.1c0,0,0,0-0.1-0.1l-0.4,0.3c-0.1,0.1-0.2,0.2-0.3,0.4c-0.1,0.2,0,0.3,0.1,0.4c0.1,0.1,0.2,0.2,0.3,0.2
			C37.1,15.9,37.3,15.9,37.4,15.8z M37,15h0.1c0,0,0.1,0.1,0.1,0.1c0.1,0.1,0.1,0.2,0.1,0.4c0,0.1,0,0.2-0.1,0.3c-0.1,0-0.2,0-0.2,0
			c-0.1,0-0.1-0.1-0.2-0.2C36.7,15.4,36.7,15.2,37,15z"/>
		<path class="st0" d="M34.1,13.5c0,0.1,0,0.2,0.1,0.3c0.1,0.1,0.1,0.1,0.2,0.2c0,0,0.1,0,0.2,0c0.1,0,0.1-0.1,0.1-0.1l-0.1,0.2
			c0,0,0,0,0.1,0h0.1l0.1-0.3c0-0.1,0-0.2,0-0.3c0-0.1-0.1-0.2-0.2-0.2c-0.1,0-0.2,0-0.3,0C34.1,13.3,34.1,13.4,34.1,13.5z
			 M34.6,13.8C34.6,13.8,34.6,13.8,34.6,13.8l-0.2,0.1c-0.1,0-0.2-0.1-0.2-0.1c-0.1-0.1-0.1-0.1-0.1-0.2c0-0.1,0.1-0.1,0.1-0.1
			c0.1,0,0.1,0,0.2,0C34.6,13.4,34.7,13.5,34.6,13.8z"/>
		<path class="st0" d="M30,7.9c0,0.1,0,0.2,0.1,0.3c0.1,0.1,0.1,0.1,0.2,0.2c0,0,0.1,0,0.2,0c0.1,0,0.1-0.1,0.1-0.1l-0.1,0.2
			c0,0,0,0,0.1,0h0.1l0.1-0.3c0-0.1,0-0.2,0-0.3c0-0.1-0.1-0.2-0.2-0.2c-0.1,0-0.2,0-0.3,0C30.1,7.6,30,7.7,30,7.9z M30.6,8.1
			C30.6,8.1,30.6,8.2,30.6,8.1l-0.2,0.1c-0.1,0-0.2-0.1-0.2-0.2c-0.1-0.1-0.1-0.1-0.1-0.2c0,0,0-0.1,0.1-0.1c0.1,0,0.1,0,0.2,0
			C30.6,7.7,30.6,7.9,30.6,8.1z"/>
		<path class="st0" d="M38.8,17.5c0,0.1,0,0.2,0.1,0.3c0.1,0.1,0.1,0.1,0.2,0.2c0,0,0.1,0,0.2,0c0.1,0,0.1-0.1,0.1-0.1l-0.1,0.2
			c0,0,0,0,0.1,0h0.1l0.1-0.3c0-0.1,0-0.2,0-0.3c0-0.1-0.1-0.2-0.2-0.2c-0.1,0-0.2,0-0.3,0C38.9,17.3,38.8,17.4,38.8,17.5z
			 M39.4,17.8C39.4,17.8,39.4,17.8,39.4,17.8l-0.2,0.1c-0.1,0-0.2-0.1-0.2-0.1c-0.1-0.1-0.1-0.1-0.1-0.2c0-0.1,0.1-0.1,0.1-0.1
			c0.1,0,0.1,0,0.2,0C39.4,17.4,39.4,17.5,39.4,17.8L39.4,17.8z"/>
		<path class="st0" d="M34.2,16.7c0,0.1,0,0.2,0,0.3c0,0.1,0.1,0.1,0.2,0.1c0,0,0.1,0,0.1,0c0,0,0.1-0.1,0.1-0.1l0,0.2l0,0h0
			l0.1-0.3c0-0.1,0-0.2,0-0.3c0-0.1-0.1-0.2-0.2-0.2c-0.1,0-0.2,0-0.2,0C34.2,16.6,34.2,16.7,34.2,16.7z M34.7,16.9
			C34.7,16.9,34.7,16.9,34.7,16.9l-0.2,0c-0.1,0-0.1-0.1-0.2-0.1c-0.1,0-0.1-0.1-0.1-0.2c0,0,0.1-0.1,0.1-0.1c0,0,0.1,0,0.2,0
			C34.7,16.6,34.7,16.8,34.7,16.9L34.7,16.9z"/>
		<path class="st0" d="M35.7,7.5c0,0.1,0,0.2,0,0.2c0,0.1,0.1,0.1,0.2,0.1c0,0,0.1,0,0.1,0c0,0,0.1-0.1,0.1-0.1V8l0,0h0.1l0.1-0.3
			c0-0.1,0-0.2,0-0.3c0-0.1-0.1-0.2-0.2-0.2c-0.1,0-0.2,0-0.2,0C35.7,7.3,35.7,7.4,35.7,7.5z M36.2,7.7C36.2,7.7,36.2,7.7,36.2,7.7
			L36,7.8c-0.1,0-0.1-0.1-0.2-0.1c-0.1,0-0.1-0.1-0.1-0.2c0,0,0.1-0.1,0.1-0.1c0,0,0.1,0,0.2,0C36.2,7.4,36.2,7.5,36.2,7.7z"/>
		<path class="st0" d="M12.4,15.9c0.1-0.1,0.1-0.1,0.1-0.2c0-0.1,0-0.2-0.1-0.3c0,0-0.1-0.1-0.1-0.1c0,0-0.1,0-0.1,0l0.2-0.1
			c0,0,0,0,0-0.1l0,0l-0.3,0.2c-0.1,0.1-0.1,0.1-0.2,0.3c0,0.1,0,0.2,0.1,0.3C12,16,12.1,16,12.2,16C12.2,16,12.3,16,12.4,15.9z
			 M12.1,15.4c0,0,0.1,0,0.1,0c0,0,0.1,0,0.1,0.1c0.1,0.1,0.1,0.1,0.1,0.2c0,0.1,0,0.2-0.1,0.2c0,0.1-0.1,0.1-0.1,0.1
			c-0.1,0-0.1-0.1-0.1-0.1C11.9,15.7,11.9,15.6,12.1,15.4z"/>
		<path class="st0" d="M23.9,0.4c-0.1,0-0.2,0.1-0.2,0.1c-0.1,0.1-0.1,0.2-0.1,0.3c0,0.1,0,0.1,0.1,0.1c0,0,0.1,0.1,0.1,0.1h-0.2
			c0,0,0,0,0,0.1c0,0,0,0,0,0h0.3c0.1,0,0.2-0.1,0.3-0.2c0.1-0.1,0.1-0.2,0.1-0.3c0-0.1-0.1-0.2-0.2-0.2C24.1,0.5,24,0.4,23.9,0.4z
			 M23.9,1C23.9,1,23.9,1,23.9,1c-0.1-0.1-0.1-0.1-0.1-0.2c0-0.1,0-0.2,0-0.2c0-0.1,0.1-0.1,0.2-0.1c0.1,0,0.1,0,0.1,0.1
			c0,0.1,0,0.1,0,0.2C24.2,0.9,24.1,1,23.9,1L23.9,1z"/>
		<path class="st0" d="M12.6,7.4c0.1-0.1,0.1-0.3,0-0.4c-0.1-0.1-0.2-0.2-0.3-0.2c-0.1,0-0.1,0-0.2,0c-0.1,0-0.1,0.1-0.2,0.1
			l0.1-0.3c0,0,0,0-0.1-0.1h-0.1L11.7,7c0,0.1,0,0.3,0,0.4c0,0.1,0.2,0.3,0.3,0.3c0.1,0.1,0.3,0.1,0.4,0C12.5,7.7,12.6,7.5,12.6,7.4
			z M11.9,7c0,0,0.1-0.1,0.1-0.1c0,0,0.1,0,0.1,0.1c0.1,0,0.2,0.1,0.3,0.2c0.1,0.1,0.1,0.2,0.1,0.3c0,0.1-0.1,0.1-0.2,0.1
			c-0.1,0-0.2,0-0.2,0C11.9,7.5,11.8,7.3,11.9,7z"/>
		<path class="st0" d="M24.6,4.1c-0.1,0.1-0.1,0.2,0,0.3c0.1,0.1,0.1,0.2,0.3,0.2c0.1,0,0.1,0,0.2,0c0.1,0,0.1-0.1,0.2-0.1l-0.1,0.3
			c0,0,0,0,0.1,0.1h0.1l0.2-0.4c0-0.1,0-0.3,0-0.4c0-0.1-0.1-0.2-0.3-0.3c-0.1,0-0.2,0-0.3,0C24.7,3.9,24.7,4,24.6,4.1z M25.3,4.5
			c0,0-0.1,0.1-0.1,0.1c0,0-0.1,0-0.2,0c-0.1,0-0.2-0.1-0.3-0.2c-0.1-0.1-0.1-0.2-0.1-0.3C24.7,4,24.8,4,24.9,4c0.1,0,0.2,0,0.3,0
			C25.4,4.1,25.4,4.3,25.3,4.5z"/>
		<path class="st0" d="M17.3,4.7c0,0.1,0,0.1,0.1,0.1c0,0,0.1,0,0.1,0c0,0,0,0,0.1,0c0,0,0-0.1,0-0.1v0.1l0,0l0,0V4.7
			c0-0.1,0-0.1-0.1-0.2c-0.1,0-0.1,0-0.2,0C17.3,4.6,17.3,4.6,17.3,4.7C17.3,4.7,17.3,4.7,17.3,4.7z M17.6,4.7
			C17.6,4.7,17.6,4.7,17.6,4.7L17.6,4.7c-0.1,0.1-0.1,0.1-0.2,0.1c0,0-0.1,0-0.1-0.1c0,0,0-0.1,0-0.1c0,0,0.1,0,0.1,0
			C17.5,4.6,17.6,4.6,17.6,4.7L17.6,4.7z"/>
		<path class="st0" d="M34.3,10.4c0.1,0,0.2,0.1,0.2,0.2c0,0.1,0,0.2,0,0.3c0,0-0.1,0.1-0.1,0.1c-0.1,0-0.1,0-0.2,0l0.3,0.1
			c0,0,0,0,0,0.1l0,0L34.2,11c-0.1,0-0.2-0.1-0.3-0.2c-0.1-0.1-0.1-0.2,0-0.3c0-0.1,0.1-0.2,0.2-0.2C34.1,10.3,34.2,10.3,34.3,10.4z
			 M34.2,11c0,0,0.1,0,0.1,0c0,0,0-0.1,0.1-0.1c0-0.1,0-0.2,0-0.2c0-0.1-0.1-0.2-0.2-0.2c-0.1,0-0.1,0-0.2,0c0,0-0.1,0.1-0.1,0.1
			C33.9,10.7,34,10.9,34.2,11L34.2,11z"/>
		<path class="st0" d="M30.9,9.6C30.9,9.6,31,9.7,31,9.8c0,0.1,0,0.2-0.1,0.3c0,0-0.1,0.1-0.1,0.1c-0.1,0-0.1,0-0.2,0l0.2,0.2
			c0,0,0,0,0,0.1h0l-0.3-0.3c-0.1-0.1-0.2-0.2-0.2-0.3c0-0.1,0-0.2,0.1-0.3c0.1-0.1,0.2-0.1,0.3-0.1C30.7,9.4,30.8,9.5,30.9,9.6z
			 M30.6,10.1c0,0,0.1,0,0.1,0c0,0,0.1,0,0.1-0.1c0.1-0.1,0.1-0.1,0.1-0.2c0-0.1,0-0.2-0.1-0.2c-0.1,0-0.1,0-0.2,0
			c-0.1,0-0.1,0.1-0.2,0.1C30.3,9.8,30.4,9.9,30.6,10.1L30.6,10.1z"/>
		<path class="st0" d="M32.4,6.8c0,0.1,0,0.2,0.1,0.2c0.1,0,0.1,0.1,0.2,0c0,0,0.1,0,0.1,0c0,0,0.1-0.1,0.1-0.1v0.2h0l0,0V6.8
			c0-0.1,0-0.2-0.1-0.3c-0.1-0.1-0.1-0.1-0.2-0.1c-0.1,0-0.2,0-0.2,0.1C32.4,6.6,32.4,6.7,32.4,6.8z M33,6.8C33,6.8,33,6.9,33,6.8
			l-0.2,0.1c-0.1,0-0.1,0-0.2-0.1c-0.1,0-0.1-0.1-0.1-0.2c0-0.1,0-0.1,0.1-0.1c0,0,0.1,0,0.2,0C32.9,6.5,33,6.6,33,6.8z"/>
		<path class="st0" d="M11.9,9.3c-0.6,0-1.1,0.4-1.3,0.9c-0.2,0.6-0.3,1.3-0.3,2c0,0.2,0,0.5,0,0.8c0,0.2,0,0.3,0,0.4v0.3
			c-0.2,0-0.5,0-0.7-0.1c-0.2-0.1-0.4-0.2-0.5-0.3C9,13.1,8.9,13,8.8,12.8c-0.1-0.2-0.1-0.4-0.1-0.7c-0.1-0.9,0.4-1.7,1.2-2
			C9.9,9.9,10,9.7,10,9.6c0-0.2-0.1-0.3-0.2-0.3c-0.6,0-1.1,0.4-1.3,0.9c-0.3,0.5-0.5,1-0.5,1.6c0,1.3,0.8,2,2.4,2.2
			c0,0.1,0,0.4-0.1,0.8c0,0.2-0.1,0.3-0.1,0.4c0,0.1,0,0.2,0,0.4c0,0.3,0.1,0.5,0.4,0.5c0,0,0.1,0,0.1,0c0.3,0,0.4-0.2,0.4-0.5
			c0-0.3,0-0.6-0.1-0.8c-0.1-0.4-0.1-0.6-0.1-0.8c0.7,0,1.4-0.3,2-0.7c0.6-0.5,0.9-1.2,0.8-1.9c0-0.5-0.2-1-0.5-1.4
			C12.9,9.5,12.4,9.3,11.9,9.3z M12.3,12.8c-0.3,0.5-0.8,0.8-1.4,0.9c0-0.1,0-0.2,0-0.3s0-0.3,0-0.4v-0.1c0-0.1,0-0.1,0-0.2V12
			c0-1.6,0.3-2.4,1-2.4c0.3,0,0.6,0.2,0.7,0.6c0.1,0.3,0.2,0.7,0.2,1C12.8,11.8,12.6,12.4,12.3,12.8L12.3,12.8z"/>
		<path class="st0" d="M13.6,8.1c0,0.6,0.1,1.1,0.1,1.4c0,0.3,0.1,0.6,0.2,0.9c0.1,0.3,0.4,0.5,0.7,0.4c0.3-0.1,0.5-0.2,0.5-0.5
			c-0.1-0.2-0.2-0.4-0.3-0.5c-0.1-0.2-0.2-0.3-0.3-0.4c-0.1-0.1-0.1-0.2-0.2-0.3C14.1,8.8,14,8.4,13.9,8c0-0.1,0-0.2,0-0.3
			s0-0.2,0-0.3c0.2,0.3,0.4,0.6,0.7,0.8c0.3,0.2,0.7,0.3,1,0.2c0.6-0.1,1-0.5,1.3-1.3c0.1,0.3,0.2,0.5,0.4,0.7
			C17.4,7.9,17.7,8.1,18,8c0.2,0,0.4-0.2,0.5-0.5c0.1-0.2,0.1-0.5,0.1-0.7c0-0.1,0-0.2-0.1-0.2c-0.1,0.3-0.4,0.5-0.7,0.6
			c-0.3,0-0.5-0.1-0.7-0.6c0.2-0.9,0.2-1.8,0-2.7c0-0.2-0.1-0.3-0.1-0.5c-0.1-0.1-0.2-0.1-0.5-0.1c-0.2,0-0.3,0.3-0.2,0.9
			c0.4,2.2,0,3.4-1,3.6c-0.4,0.1-0.7-0.1-0.9-0.4c-0.1-0.3-0.2-0.7-0.3-1c0-0.4,0-0.7,0-1.1c0-0.4,0-0.7,0-1.1
			c0-0.3-0.2-0.4-0.5-0.4c-0.2,0-0.4,0.1-0.5,0.3c0,0.2,0,0.4,0,0.7c0,0.2,0.1,0.5,0.2,0.9c0.1,0.4,0.2,0.7,0.2,0.9
			c0,0.2,0,0.3,0.1,0.6C13.6,7.5,13.6,7.8,13.6,8.1z"/>
	</g>
</g>
</svg>
